<?xml version="1.0" standalone="no"?>
<!DOCTYPE svg PUBLIC "-//W3C//DTD SVG 20010904//EN"
 "http://www.w3.org/TR/2001/REC-SVG-20010904/DTD/svg10.dtd">
<svg version="1.0" xmlns="http://www.w3.org/2000/svg"
 width="2356.000000pt" height="1544.000000pt" viewBox="0 0 2356.000000 1544.000000"
 preserveAspectRatio="xMidYMid meet">

<g transform="translate(0.000000,1544.000000) scale(0.100000,-0.100000)"
fill="#000000" stroke="none">
<path d="M11936 14063 c-9 -10 -330 -15 -2892 -51 -375 -5 -686 -12 -690 -15
-5 -3 -313 -8 -684 -12 -371 -4 -702 -11 -735 -16 -33 -5 -282 -9 -553 -9
l-492 0 -16 -37 c-9 -21 -20 -46 -25 -55 -5 -10 -9 -27 -9 -37 0 -11 -4 -23
-10 -26 -5 -3 -10 -17 -10 -30 0 -13 -4 -26 -8 -29 -5 -3 -9 -19 -10 -37 -1
-28 -17 -75 -42 -121 -6 -10 -10 -27 -10 -37 0 -11 -4 -23 -10 -26 -5 -3 -10
-15 -10 -26 0 -10 -4 -28 -10 -39 -5 -11 -14 -29 -20 -40 -6 -11 -10 -29 -10
-39 0 -11 -4 -23 -10 -26 -5 -3 -10 -17 -10 -30 0 -13 -4 -27 -10 -30 -5 -3
-10 -15 -10 -25 0 -10 -6 -31 -14 -47 -20 -39 -33 -71 -47 -118 -7 -22 -17
-44 -21 -49 -4 -6 -8 -23 -8 -38 0 -15 -4 -28 -10 -28 -5 0 -10 -13 -10 -30 0
-16 -4 -30 -10 -30 -5 0 -10 -10 -10 -22 0 -13 -7 -32 -15 -42 -8 -11 -15 -26
-15 -33 0 -8 -9 -33 -20 -55 -11 -23 -20 -52 -20 -65 0 -13 -4 -23 -10 -23 -5
0 -10 -13 -10 -30 0 -16 -4 -30 -10 -30 -5 0 -10 -11 -10 -24 0 -14 -4 -28
-10 -31 -5 -3 -10 -17 -10 -30 0 -13 -4 -27 -10 -30 -6 -3 -10 -15 -10 -25 0
-10 -8 -33 -17 -52 -31 -61 -33 -68 -33 -88 0 -11 -4 -20 -10 -20 -5 0 -10
-11 -10 -24 0 -14 -4 -28 -10 -31 -5 -3 -10 -17 -10 -30 0 -13 -4 -27 -10 -30
-6 -3 -10 -17 -10 -30 0 -13 -4 -27 -10 -30 -5 -3 -10 -16 -10 -29 0 -12 -4
-26 -8 -31 -5 -6 -21 -44 -36 -85 -15 -41 -31 -83 -37 -92 -5 -10 -9 -27 -9
-37 0 -11 -4 -23 -10 -26 -5 -3 -10 -17 -10 -30 0 -13 -4 -27 -10 -30 -6 -3
-10 -17 -10 -30 0 -13 -4 -27 -10 -30 -5 -3 -10 -17 -10 -31 0 -13 -4 -24 -8
-24 -4 0 -16 -26 -27 -57 -10 -32 -22 -62 -27 -68 -4 -5 -8 -19 -8 -31 0 -13
-4 -26 -10 -29 -5 -3 -10 -17 -10 -30 0 -13 -4 -27 -10 -30 -5 -3 -10 -17 -10
-30 0 -13 -4 -27 -10 -30 -6 -3 -10 -17 -10 -30 0 -13 -4 -27 -10 -30 -5 -3
-10 -13 -10 -21 0 -8 -11 -37 -25 -66 -14 -28 -25 -60 -25 -69 0 -10 -4 -21
-10 -24 -5 -3 -10 -17 -10 -30 0 -13 -5 -27 -10 -30 -5 -3 -10 -17 -10 -31 0
-13 -4 -24 -10 -24 -5 0 -10 -11 -10 -24 0 -14 -4 -28 -10 -31 -6 -3 -10 -17
-10 -30 0 -13 -5 -25 -11 -27 -7 -2 -11 -28 -10 -62 0 -46 5 -64 22 -82 43
-45 58 -47 402 -40 177 4 606 11 952 16 1574 20 2139 30 2222 40 48 5 132 10
185 10 88 0 97 -2 92 -17 -9 -27 -34 -86 -44 -105 -6 -10 -10 -27 -10 -37 0
-11 -4 -23 -10 -26 -5 -3 -10 -17 -10 -30 0 -13 -4 -27 -10 -30 -5 -3 -10 -15
-10 -26 0 -19 -4 -28 -28 -76 -7 -13 -12 -34 -12 -48 0 -14 -4 -25 -10 -25 -5
0 -10 -6 -10 -12 0 -7 -6 -24 -13 -38 -7 -14 -19 -45 -27 -70 -7 -25 -17 -49
-22 -54 -4 -6 -8 -20 -8 -32 0 -13 -4 -26 -10 -29 -5 -3 -10 -19 -10 -36 0
-16 -4 -29 -10 -29 -5 0 -10 -11 -10 -25 0 -14 -4 -25 -10 -25 -5 0 -10 -8
-10 -18 0 -17 -17 -60 -41 -104 -5 -10 -9 -25 -9 -33 0 -15 -4 -25 -28 -72 -7
-13 -12 -32 -12 -42 0 -11 -4 -23 -10 -26 -5 -3 -10 -19 -10 -36 0 -16 -4 -29
-10 -29 -5 0 -10 -9 -10 -20 0 -11 -4 -28 -9 -38 -5 -9 -17 -35 -26 -57 -10
-22 -22 -48 -26 -57 -5 -10 -9 -27 -9 -37 0 -11 -4 -22 -8 -25 -4 -3 -14 -28
-22 -56 -8 -28 -18 -53 -22 -56 -4 -3 -8 -18 -8 -35 0 -16 -4 -29 -10 -29 -5
0 -10 -9 -10 -20 0 -11 -4 -28 -9 -38 -5 -9 -17 -35 -26 -57 -10 -22 -22 -48
-26 -57 -5 -10 -9 -27 -9 -37 0 -11 -4 -23 -10 -26 -5 -3 -10 -17 -10 -30 0
-13 -4 -27 -10 -30 -5 -3 -10 -17 -10 -31 0 -13 -4 -24 -10 -24 -5 0 -10 -11
-10 -24 0 -14 -4 -28 -10 -31 -5 -3 -10 -17 -10 -29 0 -13 -6 -28 -13 -34 -7
-6 -19 -34 -27 -62 -8 -28 -18 -53 -22 -56 -4 -3 -8 -16 -8 -29 0 -13 -4 -27
-10 -30 -6 -3 -10 -15 -10 -26 0 -19 -4 -28 -28 -76 -7 -13 -12 -32 -12 -42 0
-11 -4 -23 -10 -26 -5 -3 -10 -17 -10 -29 0 -13 -7 -29 -15 -36 -8 -7 -15 -21
-15 -31 0 -11 -5 -29 -12 -42 -24 -48 -28 -57 -28 -77 0 -11 -4 -20 -10 -20
-5 0 -10 -11 -10 -25 0 -24 -3 -33 -28 -82 -7 -13 -12 -32 -12 -43 0 -11 -4
-20 -10 -20 -5 0 -12 -16 -16 -35 -3 -19 -10 -38 -15 -41 -5 -3 -9 -16 -9 -29
0 -13 -4 -27 -10 -30 -5 -3 -10 -15 -10 -26 0 -10 -4 -19 -10 -19 -5 0 -10
-13 -10 -30 0 -16 -4 -30 -10 -30 -5 0 -10 -13 -10 -30 0 -16 -4 -30 -10 -30
-5 0 -10 -13 -10 -29 0 -17 -4 -33 -10 -36 -5 -3 -10 -15 -10 -26 0 -10 -4
-19 -10 -19 -5 0 -12 -16 -16 -35 -3 -19 -10 -35 -15 -35 -5 0 -9 -13 -9 -30
0 -16 -4 -30 -10 -30 -5 0 -10 -11 -10 -24 0 -14 -4 -28 -10 -31 -5 -3 -10
-14 -10 -23 0 -9 -9 -28 -20 -42 -11 -14 -20 -32 -20 -41 0 -9 -8 -24 -19 -33
-10 -9 -21 -33 -24 -52 -3 -20 -14 -42 -23 -48 -11 -8 -18 -32 -22 -67 -3 -35
-11 -58 -22 -66 -15 -10 -28 -55 -32 -112 -1 -7 -12 -24 -25 -37 -13 -13 -23
-35 -23 -51 0 -15 -12 -46 -25 -68 -14 -22 -25 -55 -25 -72 0 -20 -8 -41 -20
-53 -15 -15 -20 -33 -20 -75 0 -43 -3 -55 -15 -55 -17 0 -31 -28 -40 -81 -3
-21 -14 -48 -24 -61 -11 -13 -23 -42 -27 -64 -4 -21 -15 -51 -25 -66 -12 -16
-19 -43 -19 -70 0 -31 -5 -46 -19 -55 -13 -8 -21 -29 -26 -70 -5 -39 -13 -62
-26 -71 -11 -8 -19 -25 -19 -43 0 -26 -16 -66 -31 -79 -14 -12 -29 -51 -29
-78 0 -16 -8 -37 -19 -46 -11 -10 -21 -37 -25 -71 -4 -35 -13 -62 -26 -75 -15
-15 -20 -33 -20 -70 0 -39 -4 -52 -20 -60 -15 -8 -20 -21 -20 -49 0 -26 -10
-52 -30 -82 -16 -24 -30 -54 -30 -66 0 -12 -11 -44 -25 -71 -14 -28 -25 -64
-25 -81 0 -18 -9 -40 -20 -51 -15 -15 -20 -33 -20 -75 0 -43 -3 -55 -15 -55
-17 0 -35 -39 -35 -76 0 -14 -11 -40 -24 -57 -13 -18 -27 -50 -31 -72 -4 -22
-14 -48 -23 -58 -12 -13 -18 -42 -21 -94 -2 -57 -8 -80 -22 -94 -24 -24 -24
-34 0 -56 10 -10 21 -27 23 -38 2 -12 17 -25 38 -32 50 -17 3080 -18 3144 -1
32 8 46 18 50 34 3 12 14 24 25 27 15 4 21 17 25 63 4 33 17 80 31 107 14 26
25 60 25 76 0 16 7 37 16 45 17 18 34 69 34 104 0 13 9 35 20 49 14 18 20 41
20 78 0 44 3 54 20 58 14 4 21 17 26 57 4 31 16 62 29 79 13 15 26 48 30 76 5
28 16 61 26 74 13 16 19 40 19 72 0 37 4 51 19 58 13 7 20 25 23 60 3 29 14
60 26 76 14 17 22 42 22 65 0 22 7 43 16 50 22 19 44 77 44 116 0 23 5 34 15
34 15 0 19 13 30 88 3 23 14 51 25 62 15 15 20 33 20 73 0 41 4 55 20 65 14 8
20 23 20 50 0 25 10 49 30 76 19 25 30 51 30 72 0 21 8 41 20 52 14 13 23 38
27 73 3 33 13 61 24 72 14 13 19 32 19 68 0 39 5 55 20 67 13 11 22 35 27 67
4 31 15 57 28 71 12 12 25 40 29 63 3 22 15 56 26 73 11 19 20 51 20 73 0 28
6 44 19 52 12 8 20 29 25 67 4 36 13 63 26 76 15 15 20 33 20 75 0 43 3 55 16
55 18 0 44 58 44 98 0 16 9 37 20 47 12 10 20 31 20 49 0 17 12 49 25 71 16
26 25 55 25 83 0 29 6 48 20 62 14 14 20 33 20 65 0 37 5 51 25 68 18 16 27
36 31 72 4 28 15 59 25 70 9 11 21 37 24 58 4 20 11 40 16 43 5 3 9 14 9 25 0
10 4 27 9 37 22 41 58 130 70 172 7 25 17 53 22 62 5 10 9 27 9 37 0 11 5 23
10 26 6 3 10 17 10 30 0 13 5 27 10 30 6 3 10 15 10 26 0 10 4 27 9 37 5 9 17
44 26 77 10 33 21 64 26 70 5 5 9 21 9 36 0 15 5 31 10 34 6 3 10 22 10 41 0
19 5 34 10 34 6 0 10 15 10 34 0 19 5 38 10 41 6 3 10 17 10 30 0 13 5 27 10
30 6 3 10 17 10 31 0 13 4 32 9 42 24 44 41 87 41 103 0 10 5 21 10 24 6 3 10
17 10 31 0 13 5 24 10 24 6 0 10 14 10 30 0 17 5 30 10 30 6 0 10 14 10 30 0
17 5 30 10 30 6 0 10 13 10 29 0 17 5 33 10 36 6 3 10 19 10 36 0 16 4 29 10
29 5 0 13 12 16 28 4 15 10 32 14 37 3 6 12 30 20 55 7 25 17 49 22 55 4 5 8
22 8 37 0 15 5 28 10 28 6 0 10 9 10 20 0 11 5 29 10 40 6 11 15 29 20 40 6
11 10 29 10 41 0 11 7 27 15 35 8 9 15 24 15 34 0 10 5 22 10 25 6 3 10 17 10
30 0 13 5 27 10 30 6 3 10 15 10 26 0 10 5 19 10 19 6 0 10 6 10 14 0 8 10 34
21 58 12 23 26 54 32 68 21 53 42 95 50 98 4 2 7 10 7 17 0 7 14 39 30 70 17
31 30 63 30 71 0 8 5 14 10 14 6 0 10 5 10 11 0 7 16 34 35 60 19 27 35 53 35
58 0 14 86 98 121 118 16 9 29 21 29 25 0 4 9 8 20 8 11 0 20 5 20 10 0 6 14
10 30 10 17 0 30 4 30 9 0 20 95 24 710 32 1031 12 1384 20 1394 30 6 5 30 9
54 9 24 0 52 5 64 11 11 6 32 13 46 15 15 3 28 9 30 15 2 5 15 9 28 9 13 0 24
5 24 10 0 6 9 10 21 10 11 0 33 8 47 18 15 10 39 24 55 32 42 21 161 129 227
206 40 46 100 142 100 159 0 8 5 15 10 15 6 0 10 9 10 19 0 11 5 23 10 26 6 3
10 18 10 33 0 16 8 34 20 42 11 8 25 32 31 54 6 21 17 45 25 53 8 8 14 30 14
48 0 19 5 37 10 40 6 3 10 25 10 48 0 31 5 45 20 55 11 7 20 22 20 34 0 18 27
84 60 148 4 9 11 34 15 57 3 23 13 47 21 54 8 6 14 29 14 50 0 21 5 41 10 44
6 3 10 23 10 44 0 30 5 40 19 44 13 3 24 22 35 60 9 31 21 59 26 62 6 3 10 21
10 40 0 19 4 36 9 39 4 3 14 26 21 51 7 25 17 45 21 45 5 0 9 16 9 35 0 20 8
48 17 62 18 26 27 47 63 146 9 26 20 50 24 54 3 3 6 24 6 45 0 21 5 38 10 38
6 0 10 7 10 15 0 8 11 39 25 69 14 30 25 61 25 68 0 7 9 28 20 46 11 18 20 45
20 60 0 15 9 38 20 52 11 14 20 37 20 52 0 15 5 30 10 33 6 3 10 17 10 30 0
21 14 56 61 146 10 21 21 56 25 78 4 23 11 44 15 47 5 3 9 20 9 38 0 18 8 41
20 54 14 14 20 35 20 65 0 23 4 47 10 53 5 5 11 19 13 31 2 13 6 26 10 29 15
15 7 91 -11 107 -17 16 -166 17 -1935 17 -1266 0 -1918 3 -1922 10 -7 12 -68
14 -79 3z"/>
<path d="M16608 13988 c-23 -12 -38 -27 -38 -38 0 -10 -9 -21 -20 -25 -12 -4
-25 -23 -34 -53 -8 -26 -24 -65 -35 -87 -12 -21 -21 -52 -21 -67 0 -15 -9 -37
-20 -48 -15 -15 -20 -33 -20 -74 0 -44 -3 -55 -19 -59 -14 -3 -20 -18 -26 -62
-4 -37 -14 -64 -25 -74 -10 -9 -23 -40 -29 -70 -6 -29 -20 -65 -31 -78 -11
-14 -20 -41 -20 -59 0 -20 -8 -42 -19 -53 -11 -11 -22 -41 -26 -71 -4 -30 -15
-60 -26 -71 -12 -12 -19 -33 -19 -57 0 -26 -7 -45 -20 -57 -10 -9 -22 -37 -26
-61 -3 -23 -17 -58 -30 -75 -15 -21 -24 -47 -24 -70 0 -22 -8 -47 -22 -64 -14
-18 -23 -47 -26 -82 -3 -39 -10 -56 -23 -64 -14 -7 -19 -21 -19 -53 0 -31 -7
-51 -25 -72 -15 -17 -25 -41 -25 -60 0 -17 -8 -42 -18 -55 -26 -35 -42 -76
-42 -107 0 -16 -8 -32 -20 -40 -15 -9 -20 -23 -20 -60 0 -35 -5 -52 -19 -64
-12 -10 -22 -37 -27 -65 -4 -26 -14 -59 -24 -73 -10 -14 -20 -46 -24 -72 -4
-27 -11 -48 -16 -48 -13 0 -40 -67 -40 -100 0 -15 -8 -35 -19 -44 -11 -10 -21
-37 -25 -67 -4 -29 -15 -58 -26 -69 -13 -13 -20 -34 -20 -59 0 -31 -4 -41 -20
-46 -14 -4 -20 -15 -20 -36 0 -21 -10 -40 -30 -61 -16 -16 -30 -40 -30 -52 0
-12 -11 -32 -25 -44 -14 -12 -25 -26 -25 -32 0 -5 -9 -19 -20 -30 -11 -11 -20
-31 -20 -45 0 -16 -6 -25 -16 -25 -9 0 -21 -13 -27 -30 -7 -18 -19 -30 -29
-30 -10 0 -18 -5 -18 -11 0 -5 -39 -48 -87 -94 -49 -46 -100 -95 -114 -109
-15 -14 -34 -26 -43 -26 -9 0 -21 -9 -28 -20 -7 -11 -23 -20 -36 -20 -15 0
-26 -7 -29 -19 -3 -14 -17 -21 -48 -26 -24 -3 -54 -14 -67 -24 -13 -10 -39
-22 -58 -26 -48 -10 -70 -23 -70 -40 0 -11 -13 -15 -54 -15 -64 0 -86 -7 -86
-26 0 -11 -17 -14 -67 -14 -99 -1 -205 -16 -214 -32 -7 -11 -161 -13 -841 -15
-458 -2 -848 -5 -866 -8 -18 -4 -36 -13 -39 -21 -3 -7 -14 -14 -24 -14 -32 0
-89 -28 -89 -43 0 -9 -14 -17 -32 -21 -25 -4 -43 -19 -72 -58 -21 -28 -41 -59
-44 -67 -3 -9 -14 -27 -24 -40 -10 -13 -18 -36 -18 -52 0 -15 -7 -35 -17 -44
-9 -9 -20 -40 -24 -67 -5 -30 -17 -59 -28 -69 -12 -12 -23 -39 -27 -69 -4 -32
-15 -59 -30 -75 -17 -18 -24 -38 -24 -64 0 -23 -8 -47 -19 -59 -10 -12 -21
-43 -25 -68 -3 -26 -13 -52 -23 -59 -10 -8 -18 -32 -21 -68 -3 -43 -9 -58 -22
-62 -13 -4 -21 -23 -29 -67 -6 -34 -19 -71 -29 -82 -11 -12 -22 -43 -26 -69
-3 -27 -15 -60 -26 -74 -12 -16 -20 -41 -20 -64 0 -25 -6 -41 -16 -47 -11 -6
-18 -28 -22 -63 -3 -35 -11 -58 -24 -69 -10 -9 -23 -40 -30 -75 -6 -33 -17
-63 -24 -68 -14 -8 -34 -69 -34 -104 0 -13 -9 -32 -20 -43 -15 -15 -20 -33
-20 -73 0 -41 -4 -55 -19 -64 -13 -8 -22 -29 -27 -60 -3 -26 -15 -56 -25 -66
-11 -10 -19 -30 -19 -46 0 -15 -13 -53 -30 -84 -17 -32 -30 -72 -30 -91 0 -24
-6 -38 -19 -45 -14 -8 -20 -27 -26 -76 -4 -43 -11 -65 -20 -65 -14 0 -25 -31
-25 -76 0 -17 -8 -38 -19 -48 -11 -10 -21 -37 -25 -65 -3 -27 -17 -62 -31 -81
-16 -22 -25 -47 -25 -71 0 -22 -8 -47 -21 -63 -12 -15 -24 -48 -27 -74 -3 -27
-12 -54 -23 -65 -14 -13 -19 -32 -19 -73 0 -47 -3 -57 -19 -61 -21 -5 -31 -31
-31 -82 0 -20 -9 -44 -24 -62 -14 -16 -28 -49 -31 -74 -4 -24 -16 -54 -26 -66
-11 -13 -19 -37 -19 -59 0 -23 -7 -43 -19 -54 -12 -11 -21 -38 -26 -74 -4 -32
-14 -61 -23 -68 -9 -7 -17 -32 -20 -68 -3 -37 -10 -60 -19 -63 -18 -7 -43 -68
-43 -107 0 -18 -8 -38 -19 -48 -12 -10 -21 -36 -25 -72 -4 -31 -11 -56 -15
-56 -14 0 -31 -50 -31 -89 0 -25 -7 -44 -20 -56 -15 -13 -20 -31 -20 -67 0
-26 -5 -48 -10 -48 -16 0 -50 -62 -50 -90 0 -14 -11 -46 -25 -72 -14 -26 -25
-61 -25 -78 0 -17 -9 -39 -20 -50 -15 -15 -20 -33 -20 -74 0 -43 -4 -56 -21
-67 -15 -10 -22 -29 -26 -72 -4 -41 -11 -61 -23 -67 -19 -10 -40 -59 -40 -92
0 -11 -9 -31 -20 -45 -13 -17 -20 -41 -20 -68 0 -27 -7 -51 -20 -68 -11 -14
-23 -47 -27 -74 -3 -26 -13 -53 -21 -59 -8 -6 -17 -34 -20 -64 -3 -34 -12 -60
-22 -70 -19 -16 -40 -71 -40 -102 0 -11 -8 -31 -19 -44 -10 -13 -22 -49 -26
-81 -4 -35 -13 -62 -23 -69 -12 -9 -18 -33 -20 -88 -6 -112 -2 -121 60 -134
73 -17 2853 -17 2946 -1 51 9 66 16 74 34 6 13 18 25 28 28 10 2 23 22 29 43
7 22 21 55 31 74 10 19 21 62 25 95 5 38 14 66 26 78 14 13 19 32 19 67 0 39
4 53 20 62 15 10 20 24 20 59 0 34 6 53 24 74 14 16 28 47 32 69 3 21 17 59
30 84 13 25 24 60 24 78 0 21 8 42 20 54 14 14 20 33 20 65 0 31 8 55 25 81
17 25 25 51 25 78 0 30 5 45 19 53 13 8 21 29 26 62 4 28 16 62 27 77 13 16
23 46 26 78 3 35 10 56 24 66 13 11 21 34 25 75 4 42 12 64 25 73 14 10 18 26
18 72 0 48 3 60 19 65 13 4 22 23 31 68 7 34 21 72 31 85 10 13 21 47 24 77 5
33 14 60 26 71 13 11 19 31 19 56 0 25 8 50 20 65 12 15 20 41 20 62 0 24 9
49 25 71 15 20 25 47 25 67 0 19 11 50 26 72 14 22 28 59 31 83 3 24 12 50 20
60 8 9 18 41 22 72 5 34 14 61 25 69 10 7 19 33 23 67 3 32 13 62 23 71 10 10
20 41 24 74 4 40 13 62 27 74 14 11 23 35 28 74 5 36 14 62 25 70 12 9 19 32
23 75 4 40 10 62 18 62 18 0 25 23 25 78 0 36 5 50 19 59 13 8 22 29 27 60 4
26 15 60 25 74 11 15 24 51 31 80 6 30 20 65 30 78 10 14 18 41 18 64 0 24 7
48 16 59 10 10 21 41 25 69 5 28 16 60 25 70 10 12 19 42 22 74 3 37 10 60 22
68 19 14 40 68 40 104 0 14 9 36 20 50 13 17 20 41 20 69 0 31 6 49 21 63 15
14 22 36 26 80 4 42 10 61 19 61 16 0 23 25 26 93 2 26 8 47 13 48 16 0 44 62
45 98 0 21 8 44 22 58 15 16 23 40 26 77 3 43 8 55 23 59 15 4 19 14 19 44 0
27 6 42 20 51 11 7 20 23 20 36 0 35 10 56 26 56 7 0 20 13 28 29 19 35 108
111 131 111 25 0 55 19 55 35 0 13 279 15 2175 17 1690 2 2177 6 2183 15 4 7
25 19 45 28 21 9 41 23 44 33 4 9 15 23 25 30 13 10 18 26 18 65 0 39 6 60 26
88 14 21 28 57 31 81 3 24 10 48 17 53 23 21 36 56 36 95 0 28 5 42 19 49 13
8 20 27 25 71 5 40 14 68 27 81 12 12 19 33 19 57 0 26 7 45 19 56 11 10 25
41 31 69 6 28 17 59 26 68 8 9 18 40 23 68 5 31 15 57 26 65 13 9 20 31 23 72
3 42 10 63 23 72 14 9 19 26 19 55 0 30 6 48 19 59 11 9 25 36 31 60 6 24 22
66 35 94 14 28 25 65 25 82 0 18 7 35 17 40 11 7 18 28 21 68 3 41 10 63 23
72 11 8 20 32 24 67 4 31 14 59 22 63 7 5 20 31 27 60 8 28 23 67 35 85 12 19
21 49 21 66 0 18 9 44 19 59 10 15 22 46 25 70 4 23 15 51 26 62 15 15 20 33
20 70 0 38 4 52 19 59 11 6 21 27 25 53 4 24 18 60 31 80 15 22 25 52 25 72 0
19 7 41 15 50 21 20 35 61 35 99 0 20 8 39 20 50 16 13 20 29 20 72 0 42 4 55
15 55 18 0 35 31 35 65 0 14 14 51 30 82 17 31 30 67 30 81 0 14 7 30 17 37
10 8 18 32 21 69 3 40 10 59 22 66 11 6 20 27 24 55 3 26 15 58 26 72 12 15
20 41 20 63 0 23 7 43 17 51 22 19 43 72 43 110 0 18 7 37 15 43 8 6 20 38 27
71 6 33 18 65 26 71 9 7 17 34 20 68 2 31 8 59 13 62 5 3 9 61 9 129 0 113 -2
125 -19 135 -14 7 -750 10 -2313 9 -2285 0 -2293 0 -2330 -21z"/>
<path d="M7100 4000 c-14 -4 -47 -13 -75 -20 -73 -16 -185 -75 -236 -123 -69
-65 -113 -136 -154 -247 -32 -88 -39 -126 -39 -240 -1 -101 2 -121 22 -162 46
-94 135 -166 292 -238 179 -82 223 -151 165 -266 -45 -90 -141 -124 -192 -66
-23 25 -24 32 -19 101 4 48 2 79 -5 87 -9 11 -54 14 -204 14 -221 0 -215 3
-234 -94 -16 -85 -14 -175 6 -237 19 -58 84 -133 136 -156 67 -31 69 -32 177
-53 59 -12 222 -11 285 1 28 5 69 12 93 15 23 4 45 11 48 15 3 5 13 9 23 9 39
0 148 67 213 131 48 47 76 85 99 135 51 113 61 145 80 261 13 80 2 164 -33
238 -37 80 -132 161 -253 215 -220 98 -258 136 -240 243 9 52 36 91 77 111 41
21 78 20 105 -3 19 -16 23 -30 25 -102 l3 -84 195 -3 c191 -2 195 -2 209 19
17 29 20 284 3 301 -7 7 -12 20 -12 29 0 26 -79 102 -135 128 -27 14 -70 29
-95 34 -59 13 -298 18 -330 7z"/>
<path d="M9995 3998 c-93 -22 -215 -71 -223 -90 -2 -4 -9 -8 -16 -8 -7 0 -43
-34 -81 -75 -70 -76 -129 -174 -177 -295 -27 -70 -82 -253 -92 -310 -4 -19
-11 -57 -17 -85 -54 -271 -60 -485 -16 -614 23 -68 86 -144 137 -167 64 -29
80 -34 148 -50 56 -13 99 -16 185 -11 62 3 126 10 142 15 17 5 50 16 75 23 54
16 122 52 172 91 91 71 211 278 264 453 15 50 30 99 35 110 4 11 10 34 13 50
2 17 10 50 16 75 48 203 71 465 51 579 -40 223 -185 323 -464 320 -61 -1 -130
-6 -152 -11z m151 -329 c36 -40 24 -182 -43 -494 -8 -38 -17 -81 -19 -95 -3
-14 -9 -41 -14 -60 -5 -19 -21 -84 -36 -145 -14 -60 -30 -114 -35 -120 -5 -5
-9 -19 -9 -31 0 -11 -18 -42 -41 -68 -37 -41 -45 -46 -84 -46 -34 0 -47 5 -59
22 -23 33 -20 151 9 298 22 114 30 152 55 260 4 19 15 71 24 115 31 154 86
313 121 351 37 38 102 45 131 13z"/>
<path d="M2615 3972 c-104 -3 -121 -13 -128 -75 -3 -23 -12 -73 -21 -112 -29
-121 -37 -178 -25 -190 6 -6 66 -10 142 -11 73 -1 137 -2 143 -3 7 0 -1 -55
-22 -153 -19 -84 -41 -187 -50 -228 -8 -41 -19 -91 -24 -110 -5 -19 -16 -73
-26 -120 -9 -47 -23 -116 -31 -155 -30 -142 -33 -157 -63 -305 -23 -113 -27
-156 -18 -173 8 -15 28 -17 206 -17 139 1 202 4 212 13 18 14 41 103 105 412
8 39 24 113 36 165 11 52 25 115 29 140 5 25 13 65 19 90 9 43 24 118 41 205
17 88 50 228 55 233 3 3 65 5 138 5 155 -1 177 7 177 63 0 19 4 43 9 52 5 10
12 37 16 61 3 24 10 53 15 65 17 47 23 133 9 142 -13 8 -738 13 -944 6z"/>
<path d="M3633 3970 c-13 -5 -23 -13 -23 -17 -1 -4 -5 -28 -10 -53 -36 -168
-50 -239 -56 -285 -3 -22 -9 -49 -14 -60 -5 -11 -11 -38 -14 -60 -7 -52 -21
-125 -40 -205 -19 -76 -33 -144 -65 -307 -5 -27 -17 -86 -27 -133 -19 -97 -21
-251 -4 -307 44 -143 118 -204 290 -239 125 -25 347 -11 422 27 10 5 27 9 38
9 11 0 20 4 20 8 0 4 16 14 35 21 46 16 137 101 186 172 21 32 39 60 39 63 0
3 11 29 24 58 39 89 46 108 46 133 0 13 5 27 10 30 6 3 10 24 10 45 0 21 5 42
10 45 6 3 10 26 10 50 0 24 5 47 10 50 6 3 10 22 10 42 0 20 4 50 9 67 10 34
33 137 51 231 6 33 15 74 21 91 5 17 9 47 9 67 0 20 5 39 10 42 6 3 10 26 10
50 0 24 5 47 10 50 6 3 10 22 10 42 0 20 4 50 9 67 5 17 18 66 27 108 26 112
32 108 -197 108 -103 0 -199 -4 -212 -9 -25 -10 -30 -23 -43 -126 -3 -22 -9
-49 -14 -60 -5 -11 -11 -36 -14 -55 -12 -83 -24 -149 -29 -157 -3 -5 -8 -28
-12 -53 -4 -25 -9 -48 -12 -53 -3 -4 -9 -34 -14 -65 -6 -31 -14 -79 -20 -107
-6 -27 -13 -70 -16 -95 -3 -25 -9 -49 -14 -55 -5 -5 -9 -27 -9 -50 0 -23 -4
-45 -9 -50 -5 -6 -11 -28 -14 -50 -3 -22 -13 -69 -22 -105 -9 -36 -20 -83 -24
-105 -12 -64 -46 -130 -79 -153 -39 -28 -102 -29 -127 -2 -25 27 -16 131 29
325 36 155 73 341 82 410 3 22 9 49 14 60 5 11 11 38 14 60 5 43 14 88 40 200
23 99 36 162 43 219 9 74 4 76 -211 75 -100 0 -191 -4 -203 -9z"/>
<path d="M4879 3961 c-13 -10 -22 -33 -25 -61 -3 -25 -9 -54 -14 -65 -5 -11
-11 -38 -14 -60 -11 -86 -18 -121 -26 -140 -5 -11 -11 -38 -14 -60 -3 -22 -12
-71 -21 -110 -9 -38 -21 -92 -26 -120 -6 -27 -15 -72 -20 -100 -6 -27 -13 -70
-16 -95 -3 -25 -9 -49 -14 -55 -5 -5 -9 -24 -9 -42 0 -18 -4 -41 -9 -51 -5 -9
-13 -42 -19 -72 -6 -30 -34 -161 -63 -290 -28 -129 -54 -248 -57 -264 -9 -51
10 -56 223 -56 216 0 229 4 238 67 6 44 20 110 42 208 30 133 52 246 61 323
l6 42 52 1 c86 2 100 -1 124 -29 17 -20 21 -35 17 -57 -2 -16 -9 -57 -15 -90
-5 -33 -14 -80 -20 -105 -41 -180 -49 -302 -24 -338 15 -22 19 -22 234 -22
l220 0 6 26 c4 14 2 30 -5 37 -14 14 -15 159 -1 201 18 58 60 294 60 340 0 85
-48 170 -111 196 -16 7 -29 15 -29 19 0 3 20 15 45 26 25 11 45 23 45 27 0 5
4 8 10 8 32 0 107 100 142 190 45 116 50 141 51 256 1 105 -1 117 -28 169 -26
53 -78 105 -103 105 -7 0 -12 4 -12 9 0 5 -10 11 -22 14 -13 3 -41 11 -63 17
-25 6 -182 12 -408 14 -329 3 -370 2 -388 -13z m540 -349 c19 -19 20 -167 2
-185 -6 -6 -11 -19 -11 -28 0 -22 -72 -87 -107 -96 -16 -4 -48 -7 -73 -7 l-45
-1 4 45 c1 25 7 50 11 55 4 6 11 31 14 58 3 26 9 68 12 94 4 26 13 58 22 71
15 22 19 23 86 17 42 -5 76 -14 85 -23z"/>
<path d="M6149 3966 c-24 -12 -30 -31 -45 -156 -3 -25 -10 -49 -15 -55 -5 -5
-9 -22 -9 -39 0 -16 -4 -43 -9 -60 -11 -36 -26 -105 -62 -281 -6 -27 -13 -70
-16 -95 -3 -25 -9 -49 -14 -54 -5 -6 -9 -31 -9 -56 0 -25 -4 -50 -9 -55 -5 -6
-11 -28 -14 -50 -3 -22 -13 -69 -22 -105 -17 -67 -26 -107 -44 -200 -13 -67
-44 -210 -65 -303 -20 -87 -20 -123 0 -131 9 -3 103 -6 209 -6 211 0 219 2
230 58 3 15 10 47 15 72 5 25 20 99 34 165 13 66 27 134 31 150 3 17 10 51 16
78 5 26 14 70 19 97 6 28 14 71 19 98 21 104 31 150 46 217 23 100 35 163 42
218 3 26 10 50 14 53 5 3 9 25 9 49 0 24 5 47 10 50 6 3 10 25 10 49 0 23 4
46 9 52 5 5 11 29 14 54 3 25 11 73 19 108 22 93 26 91 -201 91 -125 0 -196
-4 -212 -13z"/>
<path d="M7928 3972 c-26 -5 -46 -72 -64 -215 -4 -26 -11 -50 -15 -53 -5 -3
-9 -27 -9 -55 0 -27 -4 -49 -10 -49 -5 0 -10 -17 -10 -37 0 -20 -4 -50 -10
-67 -12 -39 -50 -206 -61 -266 -4 -25 -26 -130 -49 -235 -114 -517 -136 -633
-124 -653 10 -15 34 -17 193 -20 106 -1 189 2 200 7 13 7 24 35 36 88 24 110
32 148 50 233 9 41 20 93 25 115 11 47 19 95 27 150 3 22 9 44 14 50 5 5 9 22
9 39 0 16 4 43 9 60 6 17 19 72 30 121 l19 90 1 -238 c1 -131 -4 -337 -10
-459 -10 -203 -9 -221 7 -239 15 -17 32 -19 159 -19 125 0 144 2 158 18 10 10
17 23 17 29 0 5 6 23 14 39 22 44 136 326 136 336 0 4 8 27 19 51 10 23 35 85
56 137 20 52 40 104 45 115 4 11 13 36 20 55 17 48 25 68 49 120 l22 45 -5
-45 c-2 -25 -12 -76 -21 -115 -8 -38 -20 -95 -26 -125 -6 -30 -15 -75 -20
-100 -6 -25 -14 -67 -19 -95 -5 -27 -14 -68 -19 -90 -5 -22 -14 -65 -20 -95
-7 -30 -16 -73 -21 -95 -33 -153 -33 -154 -20 -170 10 -12 44 -15 200 -15 140
0 190 3 198 13 9 11 50 164 65 247 5 23 78 363 98 455 5 22 13 63 19 90 5 28
21 104 36 170 26 121 35 164 54 265 10 51 14 72 38 190 5 25 17 80 26 124 13
58 14 82 6 90 -7 7 -103 12 -302 13 l-290 2 -24 -24 c-13 -13 -24 -33 -24 -43
0 -10 -3 -22 -7 -26 -4 -3 -12 -21 -18 -39 -52 -145 -99 -265 -116 -299 -5
-10 -9 -25 -9 -33 0 -8 -4 -23 -10 -33 -13 -22 -67 -163 -86 -222 -8 -25 -19
-53 -24 -62 -6 -10 -10 -27 -10 -38 0 -11 -4 -20 -9 -20 -5 0 -12 -8 -14 -17
-9 -35 -7 303 2 359 6 31 11 151 12 265 2 206 2 208 -20 219 -21 11 -528 16
-573 6z m964 -694 c-8 -8 -9 -4 -5 13 4 13 8 18 11 10 2 -7 -1 -18 -6 -23z"/>
<path d="M11470 3973 c-58 -2 -115 -5 -127 -8 -24 -5 -31 -26 -53 -140 -6 -33
-16 -78 -20 -100 -18 -79 -21 -123 -11 -129 16 -10 75 -15 194 -15 96 -1 107
-3 107 -19 0 -10 -4 -22 -9 -28 -5 -5 -11 -27 -14 -49 -3 -22 -14 -78 -26
-125 -25 -106 -34 -144 -66 -300 -14 -69 -36 -172 -49 -230 -13 -58 -29 -132
-36 -165 -7 -33 -18 -87 -25 -120 -35 -152 -39 -186 -29 -203 10 -15 36 -17
210 -20 151 -2 204 1 217 11 12 8 26 50 43 132 13 66 29 143 35 170 6 28 15
70 20 95 4 25 12 65 18 90 5 25 14 70 20 100 13 67 25 124 46 215 9 39 18 88
21 110 3 22 9 49 14 60 5 11 11 38 14 60 3 22 10 63 15 90 6 28 13 66 17 85 4
19 12 38 18 42 5 4 71 5 144 4 115 -3 137 -1 151 13 10 10 25 57 35 107 10 49
24 114 32 145 17 68 18 105 4 114 -11 7 -708 12 -910 8z"/>
<path d="M12468 3966 c-15 -8 -25 -25 -31 -51 -23 -112 -28 -143 -33 -180 -3
-22 -9 -49 -14 -60 -5 -11 -11 -36 -14 -55 -3 -19 -12 -66 -21 -105 -9 -38
-21 -92 -26 -120 -6 -27 -15 -72 -20 -100 -6 -27 -13 -70 -16 -95 -3 -25 -9
-49 -14 -55 -5 -5 -9 -28 -9 -51 0 -24 -4 -46 -10 -49 -5 -3 -10 -24 -10 -46
0 -21 -4 -47 -9 -57 -5 -9 -14 -44 -21 -77 -7 -33 -16 -80 -21 -105 -5 -25
-12 -63 -15 -85 -3 -22 -9 -49 -14 -60 -5 -11 -11 -36 -14 -55 -3 -19 -10 -60
-16 -90 -7 -30 -12 -75 -13 -100 l-2 -45 479 -3 c534 -2 509 -6 519 66 10 65
18 106 27 142 30 120 34 151 19 161 -8 5 -130 9 -271 9 l-257 0 5 38 c3 20 9
53 14 72 9 36 17 76 27 143 l5 37 243 0 c191 0 245 3 254 13 20 24 74 317 63
345 -3 9 -60 12 -239 12 l-235 0 5 43 c6 44 21 123 32 168 6 25 11 27 77 31
39 3 148 3 242 1 106 -3 181 -1 197 5 28 11 32 25 45 132 3 25 10 49 15 54 5
6 9 29 9 52 0 24 5 46 10 49 17 11 11 64 -8 74 -28 15 -904 12 -934 -3z"/>
<path d="M13584 3970 c-14 -5 -24 -21 -27 -42 -14 -77 -39 -199 -62 -293 -9
-38 -19 -91 -22 -118 -3 -26 -10 -50 -14 -53 -5 -3 -9 -25 -9 -49 0 -24 -4
-47 -10 -50 -5 -3 -10 -26 -10 -50 0 -24 -4 -47 -10 -50 -5 -3 -10 -24 -10
-46 0 -22 -4 -48 -9 -57 -5 -9 -18 -62 -30 -117 -11 -55 -28 -131 -36 -170
-57 -262 -88 -407 -96 -455 -6 -30 -12 -56 -14 -59 -3 -2 2 -13 12 -23 15 -17
43 -18 468 -18 428 0 453 1 469 19 22 24 88 341 74 353 -2 1 -114 5 -249 8
l-246 5 14 60 c7 33 18 85 23 115 6 30 15 75 20 100 5 25 14 70 20 100 6 30
15 76 20 103 6 26 14 68 19 95 5 26 17 79 26 117 9 39 21 93 26 120 6 28 15
73 20 100 6 28 12 68 15 90 3 22 9 49 14 60 8 19 14 50 26 156 6 45 5 47 -23
52 -46 9 -366 7 -389 -3z"/>
<path d="M14608 3963 c-8 -10 -27 -76 -42 -148 -15 -71 -37 -173 -48 -225 -11
-52 -24 -111 -28 -130 -50 -234 -63 -292 -71 -335 -29 -147 -40 -198 -74 -355
-15 -69 -31 -146 -36 -172 -5 -27 -14 -72 -20 -100 -19 -96 -22 -160 -8 -169
8 -5 226 -9 486 -9 l472 0 15 33 c8 17 17 50 20 72 6 45 19 114 37 192 20 88
35 83 -264 83 l-264 0 31 138 c16 75 35 140 40 144 6 4 115 8 242 8 l232 0 16
40 c9 22 16 54 16 70 0 16 4 39 9 52 12 30 33 128 34 154 0 58 18 54 -239 54
l-236 0 6 33 c10 43 25 124 32 169 4 22 13 38 23 40 9 3 122 3 251 1 181 -3
239 -1 252 9 18 14 54 159 75 302 10 68 24 66 -487 66 -423 0 -458 -1 -472
-17z"/>
<path d="M15719 3969 c-17 -6 -29 -20 -32 -37 -4 -15 -10 -47 -15 -72 -5 -25
-22 -101 -37 -170 -27 -126 -36 -170 -55 -270 -16 -82 -29 -146 -58 -290 -5
-25 -17 -79 -27 -120 -10 -41 -22 -97 -27 -125 -5 -27 -13 -72 -18 -100 -6
-27 -13 -71 -16 -98 -4 -26 -11 -50 -15 -53 -5 -3 -9 -23 -9 -45 0 -21 -4 -47
-9 -57 -9 -17 -33 -135 -34 -162 0 -53 -12 -50 196 -50 216 0 219 1 230 70 4
19 11 60 17 90 6 30 14 75 17 100 3 25 9 49 14 55 5 5 9 26 9 47 0 21 4 46 9
56 11 22 64 278 78 377 3 22 9 44 14 50 5 5 9 27 9 50 0 23 4 45 9 51 6 5 12
29 14 54 6 62 -2 -719 -9 -858 -4 -80 -2 -118 7 -128 17 -20 294 -20 315 0 16
17 114 263 114 289 0 9 5 17 10 17 6 0 10 6 10 14 0 8 16 54 36 103 20 48 39
97 44 108 4 11 13 36 20 55 16 45 23 64 48 125 12 28 42 102 67 165 48 119 63
146 51 95 -4 -16 -11 -50 -16 -75 -5 -25 -16 -76 -25 -115 -9 -38 -21 -92 -26
-120 -6 -27 -15 -72 -20 -100 -6 -27 -13 -70 -16 -95 -3 -25 -9 -49 -14 -54
-5 -6 -9 -29 -9 -52 0 -24 -4 -46 -10 -49 -5 -3 -10 -18 -10 -32 0 -15 -12
-75 -26 -134 -15 -63 -24 -119 -20 -134 l6 -25 188 0 c136 0 192 3 204 12 14
12 39 97 53 183 4 22 11 60 16 85 11 48 23 111 38 188 5 26 17 79 25 117 9 39
21 95 27 125 6 30 15 75 20 100 13 58 28 144 35 195 4 22 10 44 15 49 5 6 9
26 9 45 0 19 4 48 9 65 13 45 32 124 43 181 5 28 14 70 19 95 9 42 19 90 35
167 10 52 -4 54 -316 52 -258 -2 -282 -4 -300 -21 -11 -10 -20 -27 -20 -38 0
-10 -4 -22 -10 -25 -5 -3 -10 -17 -10 -30 0 -13 -4 -27 -10 -30 -5 -3 -10 -17
-10 -31 0 -13 -4 -24 -10 -24 -5 0 -10 -6 -10 -12 0 -7 -12 -42 -26 -78 -36
-88 -40 -98 -59 -150 -9 -25 -23 -58 -30 -75 -7 -16 -39 -97 -72 -180 l-58
-150 -3 130 c-2 72 2 188 7 259 6 71 11 198 11 282 0 136 -2 154 -17 162 -24
13 -551 13 -584 1z"/>
<path d="M17423 3969 c-12 -4 -24 -18 -27 -31 -10 -52 -29 -147 -41 -203 -7
-33 -18 -87 -25 -120 -6 -33 -14 -69 -17 -80 -3 -11 -9 -42 -14 -70 -4 -27
-13 -72 -18 -100 -6 -27 -15 -72 -20 -100 -5 -27 -17 -81 -26 -120 -9 -38 -21
-95 -26 -125 -6 -30 -15 -75 -21 -100 -5 -25 -12 -65 -15 -90 -3 -25 -9 -49
-14 -55 -5 -5 -9 -22 -9 -39 0 -16 -4 -43 -9 -60 -14 -47 -29 -111 -51 -219
-15 -72 -17 -104 -10 -118 10 -18 26 -19 484 -19 546 0 495 -11 522 110 45
202 51 250 33 261 -8 5 -130 9 -271 9 -278 0 -270 -2 -249 52 5 13 17 61 26
108 29 145 -2 130 267 130 128 0 238 4 243 8 13 9 35 72 35 99 0 11 9 56 20
100 27 108 29 125 18 146 -8 15 -30 17 -249 17 -225 0 -239 1 -231 18 5 9 17
63 27 119 l19 102 259 3 c226 3 260 5 271 19 6 9 20 61 30 115 10 55 22 109
27 122 5 13 9 41 9 63 0 32 -4 41 -22 48 -30 12 -896 12 -925 0z"/>
<path d="M18443 3972 c-15 -2 -23 -10 -23 -23 0 -11 -4 -27 -10 -37 -12 -21
-52 -211 -58 -274 l-4 -46 54 -7 c29 -4 94 -5 143 -3 l90 3 -4 -50 c-1 -27 -7
-58 -12 -67 -5 -9 -9 -35 -9 -57 0 -22 -4 -43 -10 -46 -5 -3 -10 -26 -10 -50
0 -24 -4 -47 -10 -50 -5 -3 -10 -25 -10 -49 0 -23 -4 -46 -9 -51 -5 -6 -11
-30 -14 -55 -3 -25 -12 -76 -21 -115 -10 -38 -22 -92 -27 -120 -6 -27 -15 -72
-20 -100 -6 -27 -13 -70 -16 -95 -3 -25 -9 -49 -14 -55 -5 -5 -9 -28 -9 -51 0
-24 -4 -46 -10 -49 -5 -3 -10 -25 -10 -49 0 -23 -5 -47 -11 -53 -5 -5 -9 -30
-7 -54 l3 -44 204 -3 c131 -1 208 1 216 8 16 13 18 22 54 208 5 26 17 81 26
122 23 103 34 158 41 205 3 22 9 49 14 60 5 11 11 38 14 60 3 22 10 64 15 93
6 28 15 73 20 100 5 26 17 79 26 117 19 85 33 154 44 219 12 73 22 77 181 74
74 -1 140 1 146 5 7 4 14 24 17 44 3 21 10 58 16 83 6 25 14 68 20 95 5 28 14
69 19 92 8 34 7 45 -6 55 -12 10 -123 13 -511 13 -273 0 -506 -1 -518 -3z"/>
<path d="M19551 3959 c-12 -11 -28 -68 -50 -175 -18 -88 -39 -188 -47 -224 -8
-36 -19 -90 -25 -120 -6 -30 -15 -73 -19 -95 -9 -39 -23 -108 -40 -190 -4 -22
-16 -76 -25 -120 -19 -89 -31 -147 -45 -217 -6 -27 -14 -69 -20 -95 -5 -27
-12 -64 -15 -83 -3 -19 -10 -51 -15 -70 -27 -107 -42 -201 -36 -224 l6 -26
204 0 c181 0 205 2 218 18 15 17 23 49 34 142 3 25 10 49 15 55 5 5 9 22 9 39
0 16 4 43 9 60 9 29 52 221 66 293 7 37 15 39 100 35 61 -4 64 -5 80 -39 11
-22 14 -44 10 -61 -4 -15 -11 -52 -15 -82 -5 -30 -18 -97 -29 -149 -24 -110
-30 -273 -11 -296 10 -13 48 -15 231 -15 201 0 219 1 228 18 7 13 5 27 -5 48
-12 22 -14 48 -11 104 5 74 11 105 42 245 23 104 29 213 15 265 -13 47 -86
130 -115 130 -29 0 -14 15 32 34 64 27 161 126 192 196 51 119 53 127 58 276
4 108 2 127 -17 167 -35 74 -71 105 -173 146 -46 18 -115 22 -475 24 -308 2
-345 1 -361 -14z m538 -347 c25 -25 21 -156 -6 -207 -38 -72 -105 -115 -178
-115 -43 0 -48 11 -35 75 24 109 29 132 39 189 15 84 22 89 100 81 37 -4 71
-14 80 -23z"/>
<path d="M20711 3966 c-18 -8 -20 -15 -15 -50 3 -23 9 -52 14 -66 5 -14 11
-41 14 -60 2 -19 23 -120 44 -225 22 -104 50 -237 61 -295 12 -58 26 -113 31
-122 6 -10 10 -36 10 -57 0 -22 5 -43 10 -46 6 -3 10 -33 10 -65 0 -32 -4 -62
-10 -65 -5 -3 -10 -24 -10 -46 0 -21 -4 -47 -9 -57 -5 -9 -16 -53 -25 -97 -9
-44 -21 -98 -26 -120 -5 -22 -16 -69 -24 -105 -27 -116 -29 -139 -16 -155 17
-21 396 -22 424 -2 17 13 62 185 73 282 2 22 8 49 13 60 5 11 11 38 14 60 2
22 10 63 15 90 6 28 14 68 18 89 3 22 22 67 41 100 19 34 40 71 46 83 6 13 14
23 19 23 4 0 7 4 7 10 0 5 25 48 55 95 30 46 55 89 55 95 0 5 5 10 10 10 6 0
10 4 10 9 0 6 15 32 33 58 17 26 60 93 94 148 34 55 67 105 72 112 6 7 11 14
11 17 0 2 36 62 80 132 44 70 80 133 80 141 0 27 -54 34 -253 32 -165 -2 -202
-5 -218 -18 -17 -15 -87 -150 -194 -374 -27 -56 -51 -95 -56 -90 -5 5 -11 67
-14 138 -10 218 -24 324 -46 336 -23 12 -419 8 -448 -5z"/>
</g>
</svg>
