<svg version="1.1" id="Layer_1" xmlns="http://www.w3.org/2000/svg" xmlns:xlink="http://www.w3.org/1999/xlink" x="0px" y="0px" width="100%" viewBox="0 0 2439 1549" enable-background="new 0 0 2439 1549" xml:space="preserve">

<path fill="#0A257C" opacity="1.000000" stroke="none" d="
M756.484863,781.068298 
	C756.503296,780.670105 756.521667,780.271851 756.781616,779.343628 
	C761.119507,767.556274 765.215759,756.298950 769.312073,745.041687 
	C769.367188,744.650208 769.422241,744.258728 769.755493,743.366028 
	C772.044250,738.221069 774.287598,733.662048 776.014038,728.914917 
	C779.044128,720.583008 781.757507,712.135925 784.603516,703.737000 
	C784.621277,703.346313 784.639099,702.955627 784.971313,702.067627 
	C789.356323,690.617737 793.426941,679.665161 797.497559,668.712585 
	C797.509705,668.324341 797.521790,667.936157 797.888123,667.079102 
	C800.431458,661.638916 802.886963,656.765808 804.764099,651.679199 
	C813.436462,628.179016 821.954102,604.621582 830.515198,581.080322 
	C838.968750,557.834656 847.416687,534.586914 855.849731,511.333801 
	C860.544250,498.389160 865.186584,485.425629 869.893982,472.485718 
	C870.735596,470.172272 871.578735,468.046814 867.648438,468.526855 
	C861.363342,468.544189 855.078186,468.561554 847.990173,468.434235 
	C845.027283,468.202515 842.864441,467.994385 840.707825,468.046936 
	C815.236755,468.667633 789.769714,469.521790 764.295471,469.930084 
	C727.819519,470.514679 691.338440,470.779602 654.859558,471.183655 
	C627.207703,471.489929 599.554932,471.733856 571.904358,472.130035 
	C550.086914,472.442596 528.256836,472.587006 506.463470,473.527802 
	C496.900452,473.940613 487.797699,474.906647 481.545441,465.689301 
	C481.519714,464.464996 481.494019,463.240692 481.763611,461.450653 
	C486.843842,447.941925 491.628754,434.998962 496.413696,422.055969 
	C496.432343,421.658630 496.451019,421.261292 496.747681,420.363708 
	C497.861847,418.269806 498.891052,416.746826 499.504486,415.071594 
	C505.784546,397.921692 512.016663,380.754120 518.223022,363.577301 
	C524.092896,347.331848 529.917908,331.070221 535.759033,314.814392 
	C543.394897,293.563995 551.113342,272.342712 558.620300,251.046890 
	C561.805176,242.012024 564.543335,232.819687 567.484497,223.698914 
	C567.503174,223.314224 567.521912,222.929550 567.881836,222.058350 
	C571.087708,214.530533 574.231018,207.587509 576.756958,200.426697 
	C581.502258,186.974167 585.884399,173.393646 590.432861,159.871490 
	C591.447632,156.854630 592.915405,154.713440 596.734436,154.664917 
	C606.050171,154.546616 615.363281,154.089783 624.671936,153.652679 
	C626.787415,153.553329 628.880798,152.981003 630.984314,152.626389 
	C650.729858,152.572067 670.475342,152.517746 691.018555,152.604370 
	C693.974915,152.831497 696.136963,153.043228 698.291687,152.984497 
	C720.916870,152.367859 743.537354,151.523056 766.165894,151.099121 
	C810.933411,150.260422 855.706238,149.703613 900.474976,148.922867 
	C932.917358,148.357086 965.354797,147.498871 997.797852,146.984253 
	C1048.229004,146.184326 1098.661621,145.426193 1149.096313,144.921860 
	C1179.903076,144.613815 1210.714966,144.843216 1241.524170,144.733154 
	C1244.107056,144.723923 1246.687378,143.967438 1249.268799,143.558136 
	C1253.463257,143.534637 1257.657837,143.511139 1262.593506,143.729340 
	C1265.459717,144.245163 1267.584595,144.758209 1269.709717,144.758987 
	C1367.982544,144.794632 1466.255249,144.794327 1564.528076,144.726791 
	C1566.766113,144.725250 1569.003662,143.903900 1571.241455,143.464935 
	C1571.870605,143.460693 1572.499878,143.456451 1573.736328,143.678619 
	C1576.626465,144.160965 1578.903442,144.529160 1581.193604,144.650589 
	C1586.783081,144.946930 1588.317871,146.402359 1588.137939,151.939087 
	C1588.069092,154.058746 1587.722046,156.238098 1587.082397,158.257431 
	C1585.246460,164.054474 1583.227051,169.794327 1581.221436,175.536240 
	C1579.329834,180.951370 1577.258667,186.305847 1575.464111,191.752090 
	C1573.990723,196.223358 1572.807251,200.790161 1571.495361,205.314636 
	C1571.479980,205.693985 1571.464478,206.073334 1571.164551,206.977631 
	C1569.148193,211.394302 1567.228149,215.214828 1565.722290,219.192154 
	C1562.233154,228.407608 1559.026245,237.729782 1555.549438,246.950104 
	C1552.534180,254.947006 1549.144653,262.805359 1546.243530,270.841583 
	C1544.916748,274.516937 1544.366211,278.472504 1543.463867,282.301025 
	C1543.456177,282.682220 1543.448486,283.063416 1543.183105,283.982727 
	C1541.308594,288.043823 1539.590698,291.524628 1538.102173,295.100922 
	C1536.404297,299.180328 1534.875488,303.331726 1533.338013,307.475922 
	C1531.683838,311.934418 1530.104858,316.420837 1528.493164,320.895081 
	C1528.457886,322.040985 1528.422607,323.186859 1528.069702,324.885254 
	C1524.251465,334.200684 1520.641357,342.922363 1517.316284,351.751343 
	C1516.300171,354.449280 1516.067261,357.442200 1515.475586,360.300018 
	C1515.462280,360.683594 1515.448853,361.067200 1515.106079,361.934143 
	C1513.286255,365.230743 1511.681030,367.991272 1510.353394,370.879333 
	C1509.676880,372.351196 1509.675537,374.123352 1509.065308,375.637451 
	C1506.055664,383.104218 1503.097534,390.598053 1499.825195,397.950653 
	C1496.727783,404.910400 1493.593262,411.893311 1489.852051,418.513916 
	C1487.013672,423.536804 1483.196899,428.006836 1479.815552,432.722839 
	C1479.815552,432.722870 1479.771362,432.771393 1479.435059,432.906494 
	C1477.480835,434.753540 1475.862671,436.465515 1474.244507,438.177490 
	C1474.244507,438.177490 1474.215454,438.218964 1473.847656,438.278137 
	C1468.838501,441.253296 1464.253052,444.263245 1459.544678,447.066956 
	C1447.198486,454.418854 1433.492554,458.448669 1419.453491,458.880768 
	C1376.905884,460.190277 1334.326660,460.527130 1291.757568,461.068024 
	C1271.794678,461.321686 1251.823364,461.405304 1231.862305,461.118164 
	C1220.690796,460.957489 1211.117676,465.002106 1202.122314,470.845947 
	C1199.597046,472.486481 1197.884399,475.377747 1195.798950,477.695374 
	C1195.798950,477.695404 1195.757080,477.758728 1195.478394,477.911011 
	C1194.761841,478.661377 1194.324097,479.259521 1193.886353,479.857666 
	C1193.886353,479.857666 1193.897583,479.899078 1193.570312,480.024048 
	C1189.281860,486.017212 1184.366943,491.460480 1181.529175,497.829254 
	C1170.805664,521.894348 1160.498413,546.155029 1150.575562,570.562195 
	C1146.294189,581.092957 1143.330444,592.159363 1139.768066,602.982483 
	C1139.739014,603.385437 1139.709839,603.788391 1139.435791,604.659729 
	C1138.708008,606.405762 1138.224854,607.683411 1137.741699,608.961060 
	C1137.662476,609.650146 1137.583008,610.339294 1137.197021,611.559814 
	C1133.541870,621.390503 1130.193359,630.689819 1126.844727,639.989075 
	C1126.799438,640.388306 1126.754150,640.787476 1126.413818,641.705322 
	C1125.404053,643.706787 1124.493530,645.128174 1124.005249,646.682129 
	C1119.478516,661.088257 1114.955811,675.496460 1110.565552,689.944641 
	C1103.847656,712.053284 1095.067749,733.342285 1085.486084,754.337463 
	C1083.570557,758.534729 1082.654419,763.177734 1081.103027,767.553406 
	C1076.449951,780.677551 1071.701416,793.767761 1067.009766,806.878235 
	C1065.167725,812.025513 1063.463989,817.223816 1061.546509,822.342346 
	C1057.364380,833.505676 1052.926514,844.575439 1048.891724,855.790894 
	C1044.907593,866.865540 1041.312500,878.079712 1037.505005,889.218445 
	C1035.626343,894.714478 1033.739624,900.210632 1031.700684,905.648315 
	C1029.381226,911.834534 1026.749634,917.905640 1024.506836,924.118164 
	C1022.029419,930.980408 1019.871704,937.957397 1017.512817,944.863220 
	C1015.854797,949.717590 1014.193909,954.575378 1012.351562,959.361206 
	C1010.159607,965.055115 1007.481750,970.575562 1005.530701,976.345703 
	C1001.657715,987.800171 998.191101,999.391357 994.449463,1010.891174 
	C992.766418,1016.064026 990.871338,1021.169800 988.991455,1026.276245 
	C986.425232,1033.246826 983.729004,1040.169556 981.185486,1047.148315 
	C978.288086,1055.098145 975.351135,1063.038574 972.703491,1071.072754 
	C970.283264,1078.416504 968.008362,1085.823486 966.073120,1093.307007 
	C964.309143,1100.128296 959.002686,1108.422974 949.565674,1108.394653 
	C851.238342,1108.098511 752.909790,1108.198853 654.581604,1108.184937 
	C652.748901,1108.184570 650.910828,1108.211426 649.084534,1108.087769 
	C644.691528,1107.790527 642.191956,1105.074707 642.155273,1100.995239 
	C642.116699,1096.713135 642.432861,1092.198853 643.771606,1088.178101 
	C647.165100,1077.986816 651.216003,1068.014282 655.007263,1057.955566 
	C658.805908,1047.877319 662.803101,1037.868774 666.357971,1027.705444 
	C670.274292,1016.508362 673.538269,1005.081116 677.531494,993.913269 
	C683.779846,976.438293 690.396973,959.095093 696.869263,941.700256 
	C698.889648,936.270203 700.908264,930.838867 702.997314,925.435120 
	C705.190796,919.761047 707.637817,914.179443 709.665833,908.448303 
	C712.263428,901.107727 714.376038,893.594360 717.017395,886.270813 
	C720.845703,875.656067 725.024475,865.168396 728.930298,854.580933 
	C731.511353,847.584717 733.659668,840.423584 736.385681,833.487183 
	C740.939148,821.901062 745.945923,810.492432 750.458374,798.891052 
	C752.232483,794.329956 753.190247,789.451355 754.519775,784.717346 
	C754.575867,784.305054 754.631958,783.892761 755.040771,783.156006 
	C755.757263,782.243774 756.121094,781.656006 756.484863,781.068298 
z" data-index="0" style="opacity: 1;"></path>
<path fill="#E00E24" opacity="1.000000" stroke="none" d="
M1051.619385,1041.594727 
	C1054.381592,1033.953735 1057.143799,1026.734985 1059.731812,1019.454468 
	C1062.152466,1012.644592 1064.363770,1005.760498 1066.713013,998.924744 
	C1069.012939,992.232544 1071.326538,985.544434 1073.715454,978.883728 
	C1075.950317,972.652954 1078.297607,966.462524 1080.585327,960.250610 
	C1083.302124,952.873535 1086.054199,945.508972 1088.702393,938.107300 
	C1090.367920,933.451782 1091.880493,928.741333 1093.444092,924.049744 
	C1095.689697,917.312439 1097.813843,910.532410 1100.185181,903.839844 
	C1102.597412,897.032288 1105.310425,890.331604 1107.770020,883.540161 
	C1109.509277,878.737488 1111.035889,873.858032 1112.675537,869.018982 
	C1114.904663,862.440491 1117.022461,855.820435 1119.424927,849.305542 
	C1121.976562,842.386292 1124.895020,835.602783 1127.481812,828.695801 
	C1129.267578,823.927673 1130.806274,819.064758 1132.375000,814.218201 
	C1134.510010,807.622742 1136.394409,800.940857 1138.707764,794.409790 
	C1141.170044,787.458435 1144.046753,780.654968 1146.667480,773.758301 
	C1148.595703,768.684021 1150.524780,763.604065 1152.232666,758.453491 
	C1154.365601,752.021851 1156.046875,745.434082 1158.339844,739.063782 
	C1160.615356,732.741394 1163.406128,726.604309 1165.977417,720.388672 
	C1166.230103,719.778076 1166.594604,719.207336 1166.793579,718.581970 
	C1170.477783,706.997864 1173.939697,695.337769 1177.894775,683.847229 
	C1180.131714,677.348511 1183.284058,671.170532 1185.812500,664.764465 
	C1187.500488,660.488098 1188.860107,656.079224 1190.287964,651.703857 
	C1192.386719,645.272644 1194.239136,638.755493 1196.520630,632.391052 
	C1199.009766,625.447083 1201.910034,618.651489 1204.551392,611.760681 
	C1206.379761,606.990906 1208.137207,602.191528 1209.810303,597.365234 
	C1211.864990,591.438049 1213.640015,585.409912 1215.826294,579.533447 
	C1218.349609,572.751587 1221.258911,566.114380 1223.869995,559.363892 
	C1225.942383,554.005981 1228.045044,548.641663 1229.727051,543.155334 
	C1232.162476,535.210632 1236.175415,528.243591 1241.820679,522.227722 
	C1249.479126,514.066467 1259.689819,511.110504 1270.185547,509.395599 
	C1275.883545,508.464569 1281.821045,508.896545 1287.650635,508.891113 
	C1323.315063,508.857880 1358.979614,508.955017 1394.643677,508.830688 
	C1406.304443,508.790039 1418.009521,508.744568 1429.609863,507.733551 
	C1440.354614,506.797089 1451.101196,505.078186 1461.627197,502.722290 
	C1468.270386,501.235443 1474.524536,497.981995 1480.925903,495.452026 
	C1485.359985,493.699524 1489.758301,491.854584 1494.154419,490.007660 
	C1512.370361,482.354614 1526.696655,469.612946 1538.809448,454.468384 
	C1545.804443,445.722565 1552.079712,436.241150 1557.483887,426.432465 
	C1561.977661,418.276428 1564.715942,409.154816 1568.252075,400.469177 
	C1570.929565,393.892883 1573.789429,387.386230 1576.290161,380.743927 
	C1578.551147,374.738586 1580.366943,368.567200 1582.503540,362.512909 
	C1585.021484,355.378204 1587.665283,348.287781 1590.269775,341.183685 
	C1592.596924,334.835419 1594.927490,328.488342 1597.287598,322.152252 
	C1599.804565,315.395386 1602.407593,308.670258 1604.879883,301.897217 
	C1607.033081,295.998169 1608.964722,290.017517 1611.160156,284.134796 
	C1614.028809,276.447540 1617.104370,268.837646 1620.005615,261.162231 
	C1621.690308,256.705566 1623.252197,252.200882 1624.790405,247.690872 
	C1626.873291,241.583740 1628.717285,235.390167 1630.963867,229.345139 
	C1633.482666,222.567062 1636.401611,215.938797 1639.022095,209.196960 
	C1640.925903,204.299210 1642.752441,199.363770 1644.387085,194.371033 
	C1646.491699,187.942154 1647.953979,181.272903 1650.455200,175.011703 
	C1653.376587,167.698944 1656.486816,160.296051 1660.795044,153.778397 
	C1662.713257,150.876450 1667.604736,149.222977 1671.432739,148.483643 
	C1676.094238,147.583344 1681.057007,148.230042 1685.889526,148.229813 
	C1828.380493,148.223175 1970.871338,148.220871 2113.362305,148.212723 
	C2128.770752,148.211838 2129.276611,148.231644 2128.219727,163.788605 
	C2127.724854,171.074539 2125.098145,178.273758 2122.975830,185.374344 
	C2120.941895,192.180069 2118.359863,198.825180 2115.928223,205.507980 
	C2113.402100,212.450684 2110.781494,219.359299 2108.175049,226.272583 
	C2106.433838,230.891266 2104.531982,235.452698 2102.905273,240.110718 
	C2100.723877,246.356628 2098.916504,252.736847 2096.621582,258.938354 
	C2094.120605,265.696442 2091.150635,272.279510 2088.565918,279.008270 
	C2086.680420,283.916138 2085.037598,288.919800 2083.378418,293.911102 
	C2081.235107,300.357758 2079.367188,306.901764 2077.040527,313.279755 
	C2074.678711,319.754578 2071.791016,326.036011 2069.341797,332.481140 
	C2067.172607,338.188202 2065.366699,344.032166 2063.261475,349.764648 
	C2060.424805,357.489075 2057.352295,365.127747 2054.573975,372.872437 
	C2052.360352,379.043671 2050.459717,385.326569 2048.374512,391.544708 
	C2046.805298,396.224243 2045.275635,400.921936 2043.528442,405.535797 
	C2041.015015,412.172272 2038.189331,418.691803 2035.739502,425.350586 
	C2033.300293,431.981140 2031.141968,438.715668 2028.895264,445.416290 
	C2026.909180,451.339844 2025.076660,457.317108 2022.985962,463.202972 
	C2020.172485,471.123810 2017.260620,479.012268 2014.232056,486.853241 
	C2011.693115,493.427277 2008.826538,499.874939 2006.296387,506.452209 
	C2004.642334,510.751831 2003.346313,515.188477 2001.860474,519.553711 
	C1999.626953,526.114807 1997.284668,532.640137 1995.142700,539.230713 
	C1992.956665,545.956726 1991.224609,552.840759 1988.809448,559.479370 
	C1985.518799,568.523743 1977.580322,571.520935 1969.088989,573.191895 
	C1965.869019,573.825500 1962.445068,573.484863 1959.114136,573.485352 
	C1827.289185,573.504517 1695.464355,573.509949 1563.639404,573.529114 
	C1559.473877,573.529724 1555.308594,573.684448 1551.142822,573.717163 
	C1538.187378,573.818909 1528.393555,579.597412 1521.157837,590.172180 
	C1514.965576,599.222046 1510.661377,609.059387 1507.510986,619.564880 
	C1505.624512,625.855286 1502.521851,631.780518 1499.976440,637.874268 
	C1499.528320,638.947144 1499.053345,640.018372 1498.724487,641.129944 
	C1495.216919,652.986023 1491.988281,664.932312 1488.152344,676.680603 
	C1485.910645,683.546509 1482.574585,690.047607 1479.989258,696.811523 
	C1478.235596,701.399231 1476.872437,706.140686 1475.439209,710.845276 
	C1473.371094,717.634216 1471.647705,724.539185 1469.316284,731.234131 
	C1466.779907,738.518005 1463.717896,745.618958 1460.880371,752.797791 
	C1460.637329,753.412842 1460.282227,753.993286 1460.111328,754.625549 
	C1458.226196,761.598938 1456.646484,768.669861 1454.421387,775.531982 
	C1452.295288,782.088806 1449.352173,788.376160 1447.048584,794.881287 
	C1444.585205,801.837280 1442.471069,808.916321 1440.165283,815.928711 
	C1438.259033,821.726135 1436.330322,827.516602 1434.349121,833.288757 
	C1431.507935,841.566528 1428.706787,849.860107 1425.706543,858.080505 
	C1423.173706,865.020569 1420.297241,871.834656 1417.733032,878.763733 
	C1415.906128,883.700317 1414.261841,888.709167 1412.684692,893.732422 
	C1410.458130,900.824036 1408.590820,908.035767 1406.157593,915.053162 
	C1403.795654,921.864807 1400.915527,928.496826 1398.257080,935.205444 
	C1398.012451,935.822998 1397.662354,936.404602 1397.469360,937.036011 
	C1393.907959,948.686829 1390.562500,960.408630 1386.735840,971.971375 
	C1384.621826,978.359802 1381.593506,984.439941 1379.189819,990.740051 
	C1377.314331,995.655518 1375.668457,1000.665344 1374.097412,1005.688538 
	C1371.926025,1012.630432 1370.151123,1019.703857 1367.780273,1026.573853 
	C1365.374023,1033.547119 1362.352417,1040.305786 1359.784912,1047.226807 
	C1357.955078,1052.159424 1356.324585,1057.172974 1354.795166,1062.208252 
	C1352.642456,1069.296143 1351.186035,1076.643311 1348.473755,1083.500610 
	C1345.489014,1091.046997 1344.964355,1100.024780 1337.806030,1105.393799 
	C1335.181763,1107.362061 1331.734497,1108.970947 1328.526001,1109.268188 
	C1321.914185,1109.880737 1315.210327,1109.524048 1308.544434,1109.524536 
	C1222.049927,1109.530151 1135.555420,1109.533325 1049.060913,1109.511108 
	C1045.566284,1109.510254 1042.070801,1109.271484 1038.577271,1109.111694 
	C1034.947510,1108.945679 1033.089722,1106.925293 1032.992554,1103.386230 
	C1032.933350,1101.232422 1032.754517,1098.938843 1033.369019,1096.934814 
	C1035.749268,1089.171753 1038.462646,1081.511597 1040.981812,1073.790283 
	C1043.170410,1067.082397 1045.217651,1060.328369 1047.418213,1053.624634 
	C1048.701172,1049.716187 1050.162476,1045.866333 1051.619385,1041.594727 
z" data-index="1" style="opacity: 1;"></path>
<path fill="#050505" opacity="1.000000" stroke="none" d="
M891.466187,1152.099243 
	C907.906189,1152.092163 923.900879,1152.072998 939.895569,1152.088135 
	C945.890137,1152.093872 946.317322,1152.541504 945.074036,1158.441528 
	C938.481384,1189.728394 931.785461,1220.993530 925.212769,1252.284546 
	C921.246216,1271.168335 917.362000,1290.070557 913.630981,1309.001953 
	C912.962830,1312.392212 911.577271,1313.975708 908.077271,1313.942383 
	C898.248108,1313.848633 888.416809,1313.824219 878.587830,1313.920776 
	C874.577515,1313.960083 873.834106,1312.259644 874.620178,1308.599609 
	C880.983643,1278.969360 887.236511,1249.315308 893.472046,1219.657837 
	C894.164307,1216.365234 894.537720,1213.005615 895.059082,1209.677002 
	C894.463013,1209.479370 893.866882,1209.281616 893.270752,1209.083984 
	C892.207397,1211.094238 890.943481,1213.025146 890.111389,1215.126831 
	C880.731384,1238.818604 871.408081,1262.532837 862.091675,1286.249756 
	C859.050659,1293.991211 856.043396,1301.746582 853.083496,1309.519287 
	C851.956360,1312.479370 850.218140,1314.075562 846.766663,1313.961182 
	C840.275879,1313.746094 833.765503,1313.705811 827.277649,1313.960327 
	C822.590515,1314.144165 821.248840,1312.191895 821.387085,1307.710938 
	C822.327026,1277.236572 823.093811,1246.756836 823.867737,1216.277466 
	C823.926758,1213.952515 823.609497,1211.618164 823.467163,1209.288086 
	C822.925537,1209.225586 822.383850,1209.162964 821.842224,1209.100342 
	C821.303589,1210.499268 820.564392,1211.855591 820.256104,1213.303589 
	C814.117004,1242.134277 808.331360,1271.044556 801.810059,1299.788086 
	C798.125061,1316.030518 802.619568,1313.713867 785.286377,1313.895874 
	C778.622681,1313.965820 771.956543,1313.829102 765.293640,1313.927612 
	C761.493042,1313.983765 760.259094,1312.484863 761.069397,1308.707397 
	C766.582947,1283.002808 772.062561,1257.290649 777.417603,1231.552612 
	C782.159424,1208.761963 786.432251,1185.869507 791.485901,1163.149658 
	C794.269958,1150.633179 791.359985,1152.128296 804.954834,1152.382568 
	C818.943237,1152.644287 832.940613,1152.777710 846.927734,1152.561157 
	C851.801697,1152.485718 853.389465,1154.052979 853.193115,1158.864258 
	C852.167297,1183.998535 851.344238,1209.141113 850.506165,1234.282593 
	C850.434998,1236.418579 850.771606,1238.568237 850.918762,1240.711548 
	C851.497620,1240.776978 852.076416,1240.842407 852.655212,1240.907837 
	C854.996765,1234.992920 857.388672,1229.097290 859.670776,1223.159668 
	C868.154480,1201.086304 876.626892,1179.008423 885.033447,1156.905640 
	C886.132446,1154.016113 887.457520,1151.755005 891.466187,1152.099243 
z" data-index="2" style="opacity: 1; visibility: visible; fill: rgb(255, 255, 255);"></path>
<path fill="#050505" opacity="1.000000" stroke="none" d="
M1626.661621,1152.099365 
	C1631.482544,1151.620728 1632.879272,1153.468262 1632.687988,1157.891846 
	C1631.716309,1180.367310 1631.023193,1202.854980 1630.234253,1225.338379 
	C1630.152466,1227.670166 1629.823853,1230.031860 1630.089233,1232.324341 
	C1630.290894,1234.065430 1631.254517,1235.718262 1631.879150,1237.410400 
	C1632.972534,1236.078613 1634.504028,1234.916016 1635.093750,1233.389526 
	C1644.804688,1208.254150 1654.483643,1183.105347 1663.930786,1157.869995 
	C1665.513794,1153.640991 1667.634277,1151.924438 1672.271973,1152.000610 
	C1688.099609,1152.260376 1703.935303,1152.187012 1719.765747,1152.022583 
	C1724.012207,1151.978516 1725.427979,1153.188721 1724.489868,1157.574463 
	C1721.081299,1173.511719 1717.974731,1189.513184 1714.666748,1205.472412 
	C1710.613525,1225.026001 1706.459839,1244.558838 1702.373413,1264.105713 
	C1699.237793,1279.103149 1696.093140,1294.098877 1693.059448,1309.117065 
	C1692.383545,1312.462280 1690.688354,1313.945557 1687.249512,1313.915405 
	C1677.417725,1313.828979 1667.584351,1313.842163 1657.752563,1313.936401 
	C1654.073853,1313.971558 1653.187988,1312.512207 1653.929688,1308.977661 
	C1659.632690,1281.796875 1665.194336,1254.586548 1670.818481,1227.389160 
	C1671.829102,1222.502808 1672.982788,1217.645752 1673.953857,1212.751953 
	C1674.326904,1210.871948 1674.374390,1208.927246 1674.570190,1207.011963 
	C1674.133423,1206.844238 1673.696777,1206.676392 1673.260010,1206.508545 
	C1672.436646,1208.092041 1671.458862,1209.615112 1670.812744,1211.267822 
	C1658.334595,1243.188477 1645.815063,1275.093262 1633.533081,1307.089355 
	C1631.669678,1311.944092 1629.311279,1314.487671 1623.740601,1314.007690 
	C1618.116577,1313.522949 1612.406494,1313.692261 1606.754761,1313.979248 
	C1602.157959,1314.212769 1600.640137,1312.570435 1600.789673,1307.907104 
	C1601.793945,1276.594849 1602.576416,1245.275146 1603.397949,1213.957153 
	C1603.501221,1210.019775 1603.412109,1206.077393 1603.412109,1202.137329 
	C1602.958496,1202.084595 1602.504761,1202.031860 1602.051147,1201.979126 
	C1600.695435,1207.701538 1599.201050,1213.395386 1598.008545,1219.151733 
	C1593.284302,1241.953735 1588.658813,1264.776245 1583.987793,1287.589233 
	C1582.485229,1294.927979 1580.916016,1302.253296 1579.458374,1309.600830 
	C1578.879395,1312.519165 1577.271606,1313.895630 1574.285889,1313.885376 
	C1564.120361,1313.850952 1553.954712,1313.864746 1543.789062,1313.887939 
	C1540.345581,1313.895752 1539.627808,1312.340820 1540.312744,1309.084839 
	C1550.697754,1259.709961 1561.002197,1210.318237 1571.291382,1160.923218 
	C1573.133545,1152.079590 1573.063232,1152.074951 1582.215576,1152.082397 
	C1596.880737,1152.094360 1611.545776,1152.091675 1626.661621,1152.099365 
z" data-index="3" style="opacity: 1; visibility: visible; fill: rgb(255, 255, 255);"></path>
<path fill="#050505" opacity="1.000000" stroke="none" d="
M1959.320557,1313.885498 
	C1949.216553,1313.883667 1939.550171,1313.938843 1929.885254,1313.848511 
	C1924.697144,1313.800049 1924.120728,1312.910767 1925.193970,1307.798096 
	C1933.442017,1268.509521 1941.681763,1229.219238 1949.917480,1189.928101 
	C1952.136963,1179.339355 1954.418457,1168.762451 1956.498169,1158.146240 
	C1957.307861,1154.012573 1958.835449,1151.911133 1963.692993,1151.984863 
	C1984.520020,1152.300903 2005.357300,1151.974243 2026.182861,1152.334839 
	C2031.569580,1152.428223 2037.212280,1153.410645 2042.238403,1155.307129 
	C2051.926025,1158.962402 2057.398682,1166.515259 2058.355225,1176.904297 
	C2059.715820,1191.682983 2056.289795,1205.427734 2048.186768,1217.820923 
	C2043.914673,1224.355347 2038.025146,1229.227539 2030.459351,1231.815063 
	C2029.319214,1232.205200 2028.321899,1233.012573 2026.760498,1233.914673 
	C2027.877930,1234.852295 2028.378540,1235.576050 2029.040283,1235.781982 
	C2038.423218,1238.702881 2042.654541,1245.815308 2042.003662,1254.816895 
	C2041.215820,1265.710693 2038.756104,1276.483643 2037.023071,1287.309326 
	C2036.207642,1292.403809 2034.893921,1297.487061 2034.769287,1302.598877 
	C2034.689209,1305.889771 2036.361084,1309.223389 2037.422363,1313.190063 
	C2035.924805,1313.398071 2034.233276,1313.826172 2032.539062,1313.836914 
	C2021.373901,1313.907837 2010.206177,1313.775391 1999.043335,1313.959595 
	C1994.991333,1314.026489 1992.883301,1312.475952 1993.320801,1308.467041 
	C1994.311768,1299.384033 1995.439087,1290.312744 1996.701172,1281.263306 
	C1997.688965,1274.181641 1999.437256,1267.175781 1999.977905,1260.070068 
	C2000.539551,1252.689209 1997.332153,1249.783203 1989.937256,1249.504028 
	C1988.272583,1249.441040 1986.599609,1249.543213 1984.939453,1249.433228 
	C1980.551880,1249.142700 1978.497803,1250.869751 1977.623535,1255.489746 
	C1974.222168,1273.463013 1970.292114,1291.335449 1966.710938,1309.275879 
	C1965.880615,1313.435547 1963.240479,1314.109009 1959.320557,1313.885498 
M1990.801392,1192.084717 
	C1989.163330,1199.897705 1987.662231,1207.742798 1985.832275,1215.510620 
	C1984.851440,1219.673950 1986.447266,1220.831543 1990.338623,1220.956177 
	C2006.064331,1221.458984 2018.088745,1207.892456 2015.640991,1192.220825 
	C2014.551025,1185.242798 2009.738037,1182.200684 1999.685791,1182.135742 
	C1992.863770,1182.091797 1992.304077,1182.674805 1990.801392,1192.084717 
z" data-index="4" style="opacity: 1; visibility: visible; fill: rgb(255, 255, 255);"></path>
<path fill="#050505" opacity="1.000000" stroke="none" d="
M515.286011,1249.510742 
	C513.402100,1251.301880 511.132446,1252.868896 510.688995,1254.845459 
	C506.716034,1272.554932 502.948486,1290.313477 499.403717,1308.113892 
	C498.562103,1312.340088 496.774414,1314.058228 492.431122,1313.966553 
	C482.441956,1313.755615 472.442474,1313.754150 462.453125,1313.958862 
	C458.026245,1314.049561 456.852631,1312.297974 457.725677,1308.219482 
	C461.797852,1289.195068 465.828857,1270.161621 469.797760,1251.115479 
	C473.052643,1235.495972 476.178406,1219.849731 479.399872,1204.223145 
	C482.623749,1188.585083 485.942932,1172.966309 489.110687,1157.316895 
	C489.849152,1153.668945 491.460022,1151.987183 495.481415,1152.023560 
	C516.966248,1152.217285 538.454468,1152.045532 559.939087,1152.251831 
	C569.170105,1152.340576 578.117920,1154.437988 584.202271,1161.901245 
	C587.318787,1165.724243 589.983521,1170.777466 590.644714,1175.578613 
	C592.633545,1190.019531 589.441589,1203.751221 581.903320,1216.283569 
	C577.767090,1223.160034 571.847168,1228.188843 564.441406,1231.425659 
	C563.054810,1232.031738 561.804077,1232.948486 560.014893,1234.001831 
	C561.294739,1235.036133 561.825928,1235.727173 562.518433,1235.985352 
	C571.911621,1239.484863 575.522766,1246.998413 574.804443,1256.130005 
	C574.051147,1265.706177 571.843994,1275.170288 570.220032,1284.674438 
	C569.462952,1289.104858 568.057190,1293.495605 567.897949,1297.938354 
	C567.720581,1302.889038 568.625977,1307.878540 569.114563,1313.475952 
	C568.312561,1313.561157 566.734436,1313.867188 565.154907,1313.874390 
	C553.995605,1313.925293 542.833313,1313.774536 531.678101,1313.996704 
	C527.526184,1314.079468 525.659241,1312.516357 526.126831,1308.492798 
	C527.257080,1298.768555 528.423889,1289.046631 529.759766,1279.348999 
	C530.620361,1273.101440 532.263489,1266.932861 532.731445,1260.667236 
	C533.321594,1252.766479 530.171021,1249.775024 522.241943,1249.486084 
	C520.079773,1249.407349 517.912231,1249.475586 515.286011,1249.510742 
M518.786255,1214.090088 
	C518.419922,1216.710938 516.551392,1219.866455 521.017700,1220.846680 
	C530.048218,1222.828857 539.555298,1218.581421 543.750854,1210.262329 
	C545.517700,1206.758789 546.790771,1202.881104 547.569580,1199.028198 
	C549.775940,1188.113770 545.247314,1182.638184 534.057556,1182.171387 
	C532.731567,1182.115967 531.399414,1182.179321 530.076233,1182.093750 
	C526.572754,1181.867554 525.003784,1183.721802 524.366211,1186.962036 
	C522.638550,1195.742310 520.790833,1204.498901 518.786255,1214.090088 
z" data-index="5" style="opacity: 1; visibility: visible; fill: rgb(255, 255, 255);"></path>
<path fill="#050505" opacity="1.000000" stroke="none" d="
M341.345337,1267.851807 
	C343.886963,1254.513184 346.301636,1241.597412 348.916138,1228.722412 
	C352.224640,1212.430176 355.711060,1196.174316 359.090027,1179.896362 
	C360.712646,1172.079468 362.021088,1164.184570 364.033325,1156.471558 
	C364.491882,1154.713867 367.231689,1152.385498 368.992126,1152.323486 
	C379.975800,1151.936646 390.979767,1152.156128 401.976562,1152.090698 
	C405.445496,1152.070068 406.331604,1153.762451 405.677826,1156.857788 
	C402.548920,1171.672485 399.430511,1186.489502 396.332306,1201.310669 
	C391.494385,1224.454590 386.654602,1247.598022 381.882477,1270.755615 
	C381.414978,1273.024170 381.286133,1275.385620 381.225677,1277.709839 
	C381.123596,1281.634888 381.265503,1285.865356 385.579895,1287.478149 
	C390.069244,1289.156494 395.322418,1289.539062 398.680115,1285.677734 
	C401.831055,1282.053955 404.796021,1277.505737 405.814087,1272.914429 
	C412.150696,1244.338623 417.911316,1215.635254 423.875031,1186.976562 
	C426.010864,1176.712891 428.018127,1166.416626 430.498810,1156.236328 
	C430.899261,1154.592896 433.440247,1152.351807 435.050842,1152.302124 
	C446.370575,1151.953003 457.705780,1152.112549 469.036072,1152.093262 
	C472.070435,1152.088135 472.663239,1153.685059 472.104279,1156.345947 
	C466.871338,1181.256714 461.778107,1206.197266 456.432739,1231.083618 
	C453.357483,1245.401001 450.589294,1259.841919 446.424164,1273.853027 
	C441.315247,1291.038818 431.822235,1305.499634 414.293549,1312.403198 
	C400.573212,1317.806885 386.063477,1319.211182 371.575195,1316.331787 
	C364.726410,1314.970581 357.402405,1312.942749 351.790649,1309.055786 
	C340.319397,1301.109985 339.876251,1288.316528 340.340881,1275.722534 
	C340.432587,1273.237427 340.973450,1270.769043 341.345337,1267.851807 
z" data-index="6" style="opacity: 1; visibility: visible; fill: rgb(255, 255, 255);"></path>
<path fill="#040404" opacity="1.000000" stroke="none" d="
M955.826355,1190.472900 
	C962.920776,1173.899048 972.348206,1159.732910 989.727966,1153.298706 
	C1006.785034,1146.983887 1024.275024,1146.268677 1041.547363,1152.488037 
	C1052.576538,1156.459351 1059.003662,1165.299927 1060.258423,1176.483276 
	C1061.507690,1187.617554 1061.694946,1199.125366 1060.391357,1210.239868 
	C1057.474854,1235.105713 1051.942505,1259.415771 1040.892334,1282.196045 
	C1026.614136,1311.630371 1001.922363,1320.263184 971.214783,1316.588745 
	C965.707336,1315.929810 959.992432,1314.346069 955.090637,1311.805420 
	C942.584717,1305.323364 938.899109,1293.456055 938.056213,1280.435425 
	C936.945923,1263.284180 939.827637,1246.472656 943.857422,1229.958496 
	C947.083496,1216.737671 951.685608,1203.852539 955.826355,1190.472900 
M1011.610291,1245.165771 
	C1013.633789,1235.214478 1015.987488,1225.315918 1017.585327,1215.296753 
	C1019.100769,1205.793945 1020.249268,1196.186890 1020.749939,1186.583618 
	C1021.095459,1179.956421 1017.184875,1177.019165 1010.560730,1177.273315 
	C1005.966492,1177.449463 1002.523743,1179.712036 1000.257324,1183.396851 
	C998.271179,1186.626221 996.338196,1190.130615 995.481018,1193.772339 
	C990.297546,1215.793945 985.284973,1237.859131 980.554565,1259.982300 
	C979.310303,1265.801758 978.952881,1271.868774 978.780640,1277.839233 
	C978.664856,1281.853638 979.536194,1286.229736 983.970581,1287.795898 
	C988.766113,1289.489624 993.815979,1289.107422 997.370728,1285.056519 
	C999.838684,1282.244141 1002.064941,1278.833130 1003.190918,1275.304077 
	C1006.274597,1265.638794 1008.719788,1255.769897 1011.610291,1245.165771 
z" data-index="7" style="opacity: 1; visibility: visible; fill: rgb(255, 255, 255);"></path>
<path fill="#050505" opacity="1.000000" stroke="none" d="
M698.324219,1251.328613 
	C692.469910,1248.430786 686.889587,1245.812988 681.444885,1242.938354 
	C667.241638,1235.439331 660.572876,1223.515869 662.340515,1207.617920 
	C664.589661,1187.389038 671.427917,1169.219971 689.717102,1157.845093 
	C704.176880,1148.851929 720.307983,1147.151245 736.899170,1149.123535 
	C741.485474,1149.668823 746.064575,1150.772339 750.480469,1152.152588 
	C760.185669,1155.185547 766.758606,1161.872803 768.310669,1171.807129 
	C769.446106,1179.074585 768.528564,1186.685547 768.280212,1194.135254 
	C768.178467,1197.188965 765.972900,1198.261841 763.066956,1198.250366 
	C753.070618,1198.210815 743.073730,1198.193726 733.077698,1198.260254 
	C729.780396,1198.282227 728.581421,1196.958862 729.169495,1193.657349 
	C729.574646,1191.383179 729.819702,1188.999634 729.614563,1186.711792 
	C728.874573,1178.458862 723.132263,1175.213257 715.432434,1178.523071 
	C703.559631,1183.626587 701.534424,1200.478760 712.115723,1208.041870 
	C716.279236,1211.017944 721.093933,1213.098633 725.666809,1215.482056 
	C730.095581,1217.790405 734.672791,1219.821655 739.048523,1222.222900 
	C753.180969,1229.977905 760.046814,1241.850952 758.453369,1258.050781 
	C756.025269,1282.735718 746.233154,1302.806152 721.671997,1312.281372 
	C707.309021,1317.822144 692.149292,1318.910034 676.912231,1316.523438 
	C671.531860,1315.680664 666.021240,1314.556885 661.049194,1312.437378 
	C648.430115,1307.058350 642.385437,1294.225830 645.361816,1278.592651 
	C647.951172,1264.992065 644.403931,1266.030029 659.921570,1266.015137 
	C666.919189,1266.008301 673.916992,1265.982422 680.914307,1266.028076 
	C686.960022,1266.067383 687.298279,1266.489136 686.608276,1272.298950 
	C686.451294,1273.620605 686.311157,1274.950684 686.278198,1276.279785 
	C686.015564,1286.856201 694.029541,1291.783203 703.421631,1286.836792 
	C715.761169,1280.337769 716.940369,1263.431396 705.555725,1255.522827 
	C703.375671,1254.008545 700.964600,1252.826660 698.324219,1251.328613 
z" data-index="8" style="opacity: 1; visibility: visible; fill: rgb(255, 255, 255);"></path>
<path fill="#050505" opacity="1.000000" stroke="none" d="
M1341.662720,1157.435303 
	C1339.953125,1166.159790 1338.286011,1174.480103 1336.684082,1182.812866 
	C1336.002319,1186.358887 1333.419678,1186.500244 1330.605835,1186.494263 
	C1316.777100,1186.465210 1302.943237,1186.689697 1289.122559,1186.354614 
	C1284.216553,1186.235840 1282.188721,1188.170288 1281.473999,1192.639160 
	C1280.660034,1197.728516 1279.772461,1202.818604 1278.604248,1207.835449 
	C1277.542603,1212.394897 1279.343994,1213.882568 1283.695923,1213.843628 
	C1295.690796,1213.736206 1307.687378,1213.792603 1319.683228,1213.815308 
	C1325.952393,1213.827271 1326.696289,1214.791626 1325.399658,1220.890747 
	C1323.945679,1227.730591 1322.383667,1234.551392 1321.128662,1241.428101 
	C1320.370728,1245.580688 1318.393677,1247.322266 1314.027588,1247.248535 
	C1301.701904,1247.040283 1289.363159,1247.431885 1277.044678,1247.072388 
	C1272.011475,1246.925537 1269.805542,1248.737427 1268.981323,1253.493530 
	C1267.788452,1260.378052 1266.443359,1267.254028 1264.732056,1274.024536 
	C1263.657471,1278.274902 1265.169312,1279.359863 1269.088623,1279.333496 
	C1282.916626,1279.240479 1296.745728,1279.298096 1310.574341,1279.318481 
	C1318.250977,1279.329712 1318.370361,1279.459595 1316.844849,1286.854614 
	C1315.296875,1294.359497 1313.585449,1301.831787 1312.135254,1309.354980 
	C1311.520386,1312.544312 1309.862793,1313.916016 1306.685669,1313.913330 
	C1277.695435,1313.888550 1248.705078,1313.880249 1219.714844,1313.927368 
	C1216.009644,1313.933350 1215.207153,1312.417725 1215.946167,1308.927124 
	C1220.422485,1287.780884 1224.746704,1266.602539 1229.112793,1245.432983 
	C1233.751953,1222.939575 1238.369507,1200.441650 1243.022217,1177.951172 
	C1244.371826,1171.427368 1246.223877,1164.975708 1247.076416,1158.391235 
	C1247.752686,1153.167358 1250.228760,1151.960449 1255.037598,1151.994385 
	C1280.361206,1152.173462 1305.686768,1152.085938 1331.011597,1152.090332 
	C1333.344116,1152.090698 1335.680664,1152.173340 1338.008423,1152.067261 
	C1341.770386,1151.895874 1342.778687,1153.665771 1341.662720,1157.435303 
z" data-index="9" style="opacity: 1; visibility: visible; fill: rgb(255, 255, 255);"></path>
<path fill="#050505" opacity="1.000000" stroke="none" d="
M1713.625977,1297.340942 
	C1717.238770,1280.002686 1720.767090,1263.081909 1724.292847,1246.160400 
	C1728.296021,1226.947510 1732.289551,1207.732544 1736.301880,1188.521606 
	C1738.480103,1178.092407 1740.805298,1167.692261 1742.822510,1157.232300 
	C1743.560913,1153.403076 1745.385010,1152.021484 1749.258423,1152.037598 
	C1777.078613,1152.153931 1804.899536,1152.146729 1832.719971,1152.065308 
	C1836.464722,1152.054199 1838.488403,1152.849243 1837.488159,1157.163330 
	C1835.572998,1165.423462 1833.691040,1173.697754 1832.110840,1182.026001 
	C1831.430908,1185.609009 1829.590576,1186.546631 1826.250732,1186.521484 
	C1812.424561,1186.417725 1798.594727,1186.635498 1784.771362,1186.414062 
	C1780.241333,1186.341675 1777.718750,1187.286987 1777.181885,1192.391357 
	C1776.646118,1197.485229 1775.059692,1202.467041 1773.960083,1207.503784 
	C1772.845947,1212.607300 1773.700928,1213.746216 1779.046265,1213.775513 
	C1791.206909,1213.841919 1803.368530,1213.762451 1815.529175,1213.827515 
	C1821.449585,1213.859253 1821.950073,1214.481201 1820.801025,1220.276001 
	C1819.343872,1227.625000 1817.614746,1234.922119 1816.269897,1242.290283 
	C1815.600586,1245.957153 1813.761475,1247.253174 1810.128540,1247.218140 
	C1797.468872,1247.095947 1784.805542,1247.312500 1772.147461,1247.126221 
	C1767.507568,1247.057983 1765.185913,1248.541382 1764.468750,1253.412354 
	C1763.452148,1260.315918 1761.711914,1267.114746 1760.229858,1273.947388 
	C1759.391235,1277.813110 1760.721191,1279.407837 1764.817871,1279.367798 
	C1778.976807,1279.229370 1793.137817,1279.307617 1807.298096,1279.340454 
	C1813.192627,1279.354126 1813.694946,1280.000977 1812.501343,1285.766602 
	C1810.914185,1293.432495 1809.212891,1301.076050 1807.731445,1308.762085 
	C1807.013672,1312.486084 1805.213989,1313.991089 1801.261230,1313.972168 
	C1772.941406,1313.837158 1744.620605,1313.912109 1716.300171,1313.890869 
	C1711.143188,1313.886963 1710.451904,1313.038086 1711.396240,1308.005127 
	C1712.039551,1304.576050 1712.820923,1301.172852 1713.625977,1297.340942 
z" data-index="10" style="opacity: 1; visibility: visible; fill: rgb(255, 255, 255);"></path>
<path fill="#050505" opacity="1.000000" stroke="none" d="
M1470.233398,1152.086670 
	C1497.364136,1152.083374 1524.025391,1152.079712 1550.686523,1152.073853 
	C1557.389648,1152.072388 1557.724121,1152.457153 1556.415527,1158.806274 
	C1554.902710,1166.145508 1553.293579,1173.466431 1551.895630,1180.827393 
	C1551.129517,1184.862427 1549.358154,1186.693726 1544.845581,1186.595337 
	C1531.021606,1186.294189 1517.185791,1186.576660 1503.357300,1186.413086 
	C1499.299072,1186.365112 1497.288452,1187.728394 1496.671997,1191.890991 
	C1495.892578,1197.154053 1494.480347,1202.320679 1493.435547,1207.547852 
	C1492.465698,1212.400391 1493.396606,1213.707764 1498.346924,1213.756348 
	C1510.676514,1213.876953 1523.008057,1213.781128 1535.338501,1213.841797 
	C1540.980957,1213.869507 1541.378784,1214.521606 1540.174316,1219.985107 
	C1538.491577,1227.617676 1536.742554,1235.243408 1535.379395,1242.935425 
	C1534.770996,1246.368286 1533.031494,1247.217285 1529.921753,1247.198853 
	C1517.258179,1247.123779 1504.593750,1247.161255 1491.929810,1247.199463 
	C1485.399658,1247.219116 1484.776978,1247.908569 1483.523682,1254.430176 
	C1482.361938,1260.475342 1480.938110,1266.469727 1479.641113,1272.489014 
	C1478.368408,1278.395386 1479.025513,1279.286011 1484.999146,1279.302368 
	C1499.329468,1279.341675 1513.660278,1279.374268 1527.990112,1279.279419 
	C1531.325928,1279.257324 1533.193604,1280.109863 1532.375244,1283.851807 
	C1530.456787,1292.623901 1528.483643,1301.385132 1526.696289,1310.184082 
	C1526.112671,1313.056641 1524.568604,1313.926147 1521.824463,1313.921631 
	C1492.830444,1313.874146 1463.836426,1313.858521 1434.842651,1313.937378 
	C1430.499390,1313.949097 1429.838501,1311.954590 1430.631958,1308.239502 
	C1439.395996,1267.202148 1448.118408,1226.155640 1456.793213,1185.099365 
	C1458.649780,1176.312866 1460.374268,1167.495117 1461.958618,1158.655762 
	C1462.770752,1154.124634 1464.460205,1151.073120 1470.233398,1152.086670 
z" data-index="11" style="opacity: 1; visibility: visible; fill: rgb(255, 255, 255);"></path>
<path fill="#050505" opacity="1.000000" stroke="none" d="
M2150.641846,1223.861328 
	C2146.843994,1229.960938 2143.634521,1236.043945 2139.579346,1241.498291 
	C2133.290771,1249.957031 2132.479980,1260.025146 2130.328369,1269.703857 
	C2127.544434,1282.225220 2124.907959,1294.784546 2122.531006,1307.388550 
	C2121.629639,1312.166382 2119.608398,1314.180786 2114.539062,1313.997925 
	C2104.885254,1313.649780 2095.207764,1313.758057 2085.545410,1313.951294 
	C2081.352783,1314.035278 2079.730713,1312.778198 2080.672119,1308.415405 
	C2083.338867,1296.054810 2085.237305,1283.498047 2088.510254,1271.306274 
	C2092.235840,1257.427979 2092.221191,1243.959717 2088.956299,1229.984985 
	C2084.187012,1209.571777 2080.418457,1188.924927 2076.229004,1168.376465 
	C2075.397461,1164.298950 2074.672852,1160.197632 2073.743896,1156.142700 
	C2073.072510,1153.211182 2074.283203,1152.091675 2077.056885,1152.094238 
	C2089.556152,1152.105591 2102.055664,1152.150146 2114.554443,1152.086548 
	C2117.835938,1152.069824 2118.314697,1154.102417 2118.488037,1156.639038 
	C2119.397217,1169.939209 2120.302002,1183.239990 2121.288818,1196.534546 
	C2121.440186,1198.569702 2122.010254,1200.573853 2122.386475,1202.592285 
	C2122.876953,1202.741089 2123.367188,1202.889893 2123.857422,1203.038574 
	C2125.004639,1201.438354 2126.399170,1199.960327 2127.259766,1198.218506 
	C2134.047119,1184.480713 2140.837402,1170.742188 2147.377197,1156.885986 
	C2149.030273,1153.383423 2151.099365,1151.946777 2155.015381,1152.026733 
	C2166.010010,1152.251221 2177.012451,1152.088867 2188.011719,1152.118042 
	C2189.792236,1152.122803 2191.572021,1152.325928 2194.942627,1152.536865 
	C2179.836670,1176.870728 2165.343994,1200.216797 2150.641846,1223.861328 
z" data-index="12" style="opacity: 1; visibility: visible; fill: rgb(255, 255, 255);"></path>
<path fill="#050505" opacity="1.000000" stroke="none" d="
M1179.595825,1291.165771 
	C1178.305786,1297.283691 1177.011475,1302.972778 1175.989990,1308.710449 
	C1175.369263,1312.196777 1173.825928,1313.994263 1170.041260,1313.948364 
	C1159.543213,1313.820801 1149.042114,1313.835205 1138.543701,1313.946045 
	C1134.615479,1313.987427 1133.565430,1312.291870 1134.337646,1308.659058 
	C1138.455933,1289.286377 1142.527100,1269.903687 1146.566162,1250.514404 
	C1149.958374,1234.230103 1153.273193,1217.929932 1156.649902,1201.642456 
	C1157.189819,1199.038086 1157.907715,1196.471069 1158.484863,1193.873901 
	C1159.360474,1189.933594 1158.140503,1187.928467 1153.707275,1188.061035 
	C1147.214233,1188.255005 1140.708618,1187.974365 1134.210693,1188.064819 
	C1130.408203,1188.117554 1128.524902,1186.959717 1129.442627,1182.746460 
	C1131.357178,1173.958008 1133.118896,1165.135742 1134.870972,1156.312866 
	C1135.455688,1153.368530 1137.100342,1152.110107 1140.085449,1152.112427 
	C1171.750488,1152.136963 1203.415527,1152.122437 1235.080566,1152.090210 
	C1238.080933,1152.087158 1239.439697,1153.264160 1238.791626,1156.378296 
	C1236.891846,1165.504517 1235.064819,1174.645874 1233.138672,1183.766479 
	C1232.506104,1186.761841 1230.707520,1188.190063 1227.439209,1188.110352 
	C1220.777100,1187.947876 1214.096313,1188.320435 1207.445557,1188.004272 
	C1202.919434,1187.789185 1200.849487,1189.483276 1199.954834,1193.890015 
	C1195.910889,1213.808350 1191.639404,1233.680298 1187.465210,1253.572266 
	C1184.864868,1265.964355 1182.291870,1278.362061 1179.595825,1291.165771 
z" data-index="13" style="opacity: 1; visibility: visible; fill: rgb(255, 255, 255);"></path>
<path fill="#050505" opacity="1.000000" stroke="none" d="
M349.209015,1187.339844 
	C341.404999,1187.693726 333.908051,1188.225464 326.450409,1187.887695 
	C320.940552,1187.638306 318.816467,1189.894775 317.797394,1194.999146 
	C313.754120,1215.250854 309.404694,1235.441528 305.192566,1255.659668 
	C301.459198,1273.579834 297.741974,1291.503296 294.056824,1309.433350 
	C293.424530,1312.509644 291.807526,1313.973145 288.541229,1313.941040 
	C277.879791,1313.835938 267.216553,1313.847534 256.554474,1313.902466 
	C252.643600,1313.922729 251.678543,1312.154419 252.462753,1308.520264 
	C257.555298,1284.919556 262.565247,1261.300903 267.576019,1237.682739 
	C270.614532,1223.360840 273.639465,1209.035889 276.601440,1194.697998 
	C277.738647,1189.193237 276.857391,1188.095825 271.281342,1188.018921 
	C264.951813,1187.931641 258.618317,1187.920532 252.289825,1188.044434 
	C248.222351,1188.124023 246.845734,1186.268433 247.651337,1182.452393 
	C249.508835,1173.653442 251.426865,1164.866455 253.193008,1156.049194 
	C253.947372,1152.283203 256.562561,1152.093872 259.584595,1152.097900 
	C280.076447,1152.125000 300.568420,1152.091431 321.060333,1152.089966 
	C331.556152,1152.089233 342.051971,1152.112427 352.547791,1152.129395 
	C354.769135,1152.133057 357.621246,1152.101440 356.955048,1155.249878 
	C354.695801,1165.927002 352.038300,1176.519775 349.209015,1187.339844 
z" data-index="14" style="opacity: 1; visibility: visible; fill: rgb(255, 255, 255);"></path>
<path fill="#050505" opacity="1.000000" stroke="none" d="
M1910.000000,1152.106201 
	C1921.499268,1152.103638 1932.499634,1152.190430 1943.497192,1152.051025 
	C1947.698486,1151.997803 1949.144409,1153.135010 1947.993042,1157.643555 
	C1945.975464,1165.542969 1944.290649,1173.555908 1943.028931,1181.609497 
	C1942.232788,1186.690674 1939.739990,1188.282959 1934.922974,1188.093018 
	C1928.433472,1187.837036 1921.925537,1188.091675 1915.427246,1188.003052 
	C1911.658447,1187.951660 1909.850098,1189.436768 1909.067993,1193.354980 
	C1904.379028,1216.844604 1899.429443,1240.282104 1894.560547,1263.735840 
	C1891.447510,1278.732300 1888.220581,1293.706421 1885.277832,1308.736206 
	C1884.577881,1312.311157 1883.143433,1313.969849 1879.401001,1313.930176 
	C1868.736450,1313.817261 1858.069336,1313.869385 1847.403809,1313.932251 
	C1844.009155,1313.952271 1842.665161,1313.082275 1843.487183,1309.179199 
	C1850.619751,1275.309448 1857.544067,1241.395752 1864.542725,1207.497803 
	C1865.519287,1202.767578 1866.437500,1198.019653 1867.615479,1193.338623 
	C1868.577393,1189.515747 1867.045898,1188.029785 1863.399902,1188.030518 
	C1856.733887,1188.031982 1850.067139,1188.074829 1843.401978,1187.998169 
	C1838.524048,1187.942017 1837.777100,1186.874390 1838.793091,1182.331177 
	C1840.642700,1174.060425 1842.817017,1165.829956 1844.037476,1157.463501 
	C1844.733521,1152.690552 1846.961914,1152.002319 1851.003906,1152.030518 
	C1870.501831,1152.166504 1890.001221,1152.100098 1910.000000,1152.106201 
z" data-index="15" style="opacity: 1; visibility: visible; fill: rgb(255, 255, 255);"></path>
<path fill="#050505" opacity="1.000000" stroke="none" d="
M1363.999512,1313.926025 
	C1353.176025,1313.917480 1342.852417,1313.938477 1332.529175,1313.891357 
	C1326.755371,1313.864990 1326.403198,1313.319702 1327.513550,1307.925903 
	C1332.239136,1284.971069 1336.858643,1261.994263 1341.627930,1239.048706 
	C1346.362427,1216.271240 1351.237793,1193.522949 1356.033447,1170.758057 
	C1356.992798,1166.203613 1358.118774,1161.663818 1358.710205,1157.058594 
	C1359.199341,1153.250122 1361.092041,1152.016846 1364.688110,1152.052246 
	C1375.343506,1152.157349 1386.000732,1152.135254 1396.656738,1152.071899 
	C1400.077759,1152.051392 1401.430664,1153.039917 1400.626953,1156.837646 
	C1392.463013,1195.413452 1384.432983,1234.017700 1376.383789,1272.617798 
	C1375.024048,1279.137573 1375.161133,1279.294678 1382.014526,1279.308472 
	C1394.668945,1279.333740 1407.323608,1279.285645 1419.977905,1279.330444 
	C1425.163574,1279.348755 1425.744629,1280.213745 1424.630493,1285.295166 
	C1422.885376,1293.254639 1421.024414,1301.195312 1419.568970,1309.208618 
	C1418.884155,1312.977905 1417.049927,1314.012085 1413.452026,1313.981934 
	C1397.135498,1313.845093 1380.817139,1313.925293 1363.999512,1313.926025 
z" data-index="16" style="opacity: 1; visibility: visible; fill: rgb(255, 255, 255);"></path>
<path fill="#050505" opacity="1.000000" stroke="none" d="
M626.332031,1305.826782 
	C624.668640,1313.915039 624.668640,1313.912231 616.869263,1313.911377 
	C607.709412,1313.910400 598.545227,1313.749634 589.391479,1313.987549 
	C584.926270,1314.103394 583.287048,1312.697144 584.266296,1308.160156 
	C586.897217,1295.970947 589.329224,1283.739014 591.872070,1271.530518 
	C595.158997,1255.750000 598.494812,1239.979492 601.776978,1224.197998 
	C605.840088,1204.661377 609.868591,1185.117676 613.918823,1165.578369 
	C614.087585,1164.763916 614.388855,1163.973999 614.521667,1163.155396 
	C616.673218,1149.900146 616.405396,1152.234497 627.994263,1152.149048 
	C636.144165,1152.088989 644.302673,1152.858765 652.448547,1152.724609 
	C656.983459,1152.650024 657.557922,1154.983765 656.976807,1158.307617 
	C655.745667,1165.350464 654.348511,1172.367188 652.882568,1179.365845 
	C644.079895,1221.390625 635.238464,1263.407471 626.332031,1305.826782 
z" data-index="17" style="opacity: 1; visibility: visible; fill: rgb(255, 255, 255);"></path>
<path fill="#485684" opacity="1.000000" stroke="none" d="
M754.291382,784.952637 
	C753.190247,789.451355 752.232483,794.329956 750.458374,798.891052 
	C745.945923,810.492432 740.939148,821.901062 736.385681,833.487183 
	C733.659668,840.423584 731.511353,847.584717 728.930298,854.580933 
	C725.024475,865.168396 720.845703,875.656067 717.017395,886.270813 
	C714.376038,893.594360 712.263428,901.107727 709.665833,908.448303 
	C707.637817,914.179443 705.190796,919.761047 702.997314,925.435120 
	C700.908264,930.838867 698.889648,936.270203 696.869263,941.700256 
	C690.396973,959.095093 683.779846,976.438293 677.531494,993.913269 
	C673.538269,1005.081116 670.274292,1016.508362 666.357971,1027.705444 
	C662.803101,1037.868774 658.805908,1047.877319 655.007263,1057.955566 
	C651.216003,1068.014282 647.165100,1077.986816 643.771606,1088.178101 
	C642.432861,1092.198853 642.116699,1096.713135 642.155273,1100.995239 
	C642.191956,1105.074707 644.691528,1107.790527 649.084534,1108.087769 
	C650.910828,1108.211426 652.748901,1108.184570 654.581604,1108.184937 
	C752.909790,1108.198853 851.238342,1108.098511 949.565674,1108.394653 
	C959.002686,1108.422974 964.309143,1100.128296 966.073120,1093.307007 
	C968.008362,1085.823486 970.283264,1078.416504 972.703491,1071.072754 
	C975.351135,1063.038574 978.288086,1055.098145 981.185486,1047.148315 
	C983.729004,1040.169556 986.425232,1033.246826 988.991455,1026.276245 
	C990.871338,1021.169800 992.766418,1016.064026 994.449463,1010.891174 
	C998.191101,999.391357 1001.657715,987.800171 1005.530701,976.345703 
	C1007.481750,970.575562 1010.159607,965.055115 1012.351562,959.361206 
	C1014.193909,954.575378 1015.854797,949.717590 1017.512817,944.863220 
	C1019.871704,937.957397 1022.029419,930.980408 1024.506836,924.118164 
	C1026.749634,917.905640 1029.381226,911.834534 1031.700684,905.648315 
	C1033.739624,900.210632 1035.626343,894.714478 1037.505005,889.218445 
	C1041.312500,878.079712 1044.907593,866.865540 1048.891724,855.790894 
	C1052.926514,844.575439 1057.364380,833.505676 1061.546509,822.342346 
	C1063.463989,817.223816 1065.167725,812.025513 1067.009766,806.878235 
	C1071.701416,793.767761 1076.449951,780.677551 1081.103027,767.553406 
	C1082.654419,763.177734 1083.570557,758.534729 1085.486084,754.337463 
	C1095.067749,733.342285 1103.847656,712.053284 1110.565552,689.944641 
	C1114.955811,675.496460 1119.478516,661.088257 1124.005249,646.682129 
	C1124.493530,645.128174 1125.404053,643.706787 1126.370605,642.003662 
	C1125.197021,647.204041 1123.983398,652.691223 1122.307861,658.033508 
	C1116.106934,677.803711 1110.043091,697.624939 1103.342651,717.226990 
	C1099.654541,728.016052 1094.632568,738.341980 1090.530518,748.999390 
	C1087.898071,755.838623 1085.907837,762.922668 1083.515259,769.857483 
	C1081.165039,776.669678 1078.687866,783.438354 1076.233276,790.214111 
	C1074.391479,795.298584 1072.604858,800.407288 1070.589844,805.423462 
	C1069.139771,809.033508 1067.355347,812.509338 1065.715210,816.042786 
	C1065.575928,816.343140 1065.342773,816.610046 1065.251953,816.921265 
	C1063.567505,822.697327 1062.019409,828.516418 1060.194946,834.247620 
	C1057.913086,841.415710 1055.405273,848.511841 1052.997681,855.639954 
	C1052.308228,857.681274 1051.586060,859.713074 1050.964233,861.774963 
	C1050.726929,862.561829 1051.002808,863.612488 1050.579590,864.217102 
	C1046.953857,869.395752 1045.181274,875.281433 1043.645508,881.307922 
	C1042.895264,884.252014 1041.682129,887.075928 1040.730469,889.971313 
	C1038.629761,896.362793 1036.716797,902.820618 1034.441284,909.148621 
	C1031.640259,916.938171 1028.554443,924.625366 1025.580200,932.352478 
	C1023.136108,938.702332 1020.676270,945.046204 1018.221008,951.391785 
	C1017.981262,952.011230 1017.675171,952.609192 1017.483765,953.242554 
	C1015.495605,959.820374 1013.774292,966.492065 1011.477112,972.959473 
	C1009.292786,979.108948 1006.504761,985.043579 1003.998962,991.079651 
	C1003.489014,992.308044 1002.986267,993.546631 1002.594727,994.815796 
	C999.123657,1006.067139 995.961121,1017.424133 992.119202,1028.546753 
	C989.837158,1035.153320 986.495728,1041.393677 983.636169,1047.801392 
	C983.433655,1048.255127 983.244263,1048.719604 983.103088,1049.195312 
	C979.836304,1060.201660 977.345459,1071.524414 973.020447,1082.097168 
	C970.533936,1088.175537 969.252197,1094.331177 967.409546,1100.459351 
	C965.883118,1105.536133 961.485718,1110.944946 954.952087,1110.715332 
	C950.626831,1110.563232 946.289917,1110.765869 941.958252,1110.765991 
	C845.315063,1110.768188 748.671814,1110.733765 652.028748,1110.833862 
	C645.866638,1110.840210 640.786865,1109.859375 638.463379,1103.393555 
	C638.086609,1102.344849 637.535034,1101.094604 637.786987,1100.125244 
	C640.345581,1090.281616 642.663330,1080.347290 645.860291,1070.707397 
	C647.946350,1064.417480 651.370850,1058.571411 654.193604,1052.525513 
	C654.403564,1052.075806 654.657593,1051.634888 654.787781,1051.161377 
	C656.515015,1044.876709 657.869019,1038.461548 660.031799,1032.331543 
	C662.429688,1025.535278 665.591003,1019.010010 668.354309,1012.339539 
	C669.043152,1010.676697 669.431152,1008.891785 670.043518,1007.194031 
	C670.919373,1004.765564 671.852722,1002.356995 672.810730,999.959534 
	C673.052795,999.353699 673.632874,998.863892 673.800903,998.250427 
	C675.663818,991.449646 677.308533,984.584045 679.361938,977.842468 
	C680.695496,973.464172 682.484741,969.209900 684.285645,964.992310 
	C686.795349,959.114868 689.505188,953.322937 692.133911,947.496521 
	C692.473877,946.743042 692.938843,946.032043 693.180969,945.250366 
	C696.630432,934.115967 699.745972,922.865723 703.597473,911.873047 
	C705.801331,905.582886 709.191711,899.708496 712.046814,893.646423 
	C712.328064,893.049255 712.670288,892.470215 712.868042,891.846008 
	C716.240906,881.202209 719.324829,870.456787 723.052734,859.939331 
	C725.388672,853.348999 728.822021,847.155701 731.507202,840.678223 
	C733.387512,836.142151 734.635925,831.343872 736.518860,826.809021 
	C740.394897,817.474060 744.543945,808.252869 748.505737,798.953003 
	C750.444702,794.401550 752.215820,789.778564 754.291382,784.952637 
z" data-index="18"></path>
<path fill="#485684" opacity="1.000000" stroke="none" d="
M1248.793091,143.444244 
	C1246.687378,143.967438 1244.107056,144.723923 1241.524170,144.733154 
	C1210.714966,144.843216 1179.903076,144.613815 1149.096313,144.921860 
	C1098.661621,145.426193 1048.229004,146.184326 997.797852,146.984253 
	C965.354797,147.498871 932.917358,148.357086 900.474976,148.922867 
	C855.706238,149.703613 810.933411,150.260422 766.165894,151.099121 
	C743.537354,151.523056 720.916870,152.367859 698.291687,152.984497 
	C696.136963,153.043228 693.974915,152.831497 691.438599,152.605133 
	C696.805115,151.760178 702.541626,150.521988 708.294861,150.438583 
	C741.781555,149.953186 775.273315,149.829330 808.761292,149.412155 
	C860.063232,148.773087 911.422974,149.264877 962.644958,146.861969 
	C1001.480286,145.040115 1040.256470,146.027802 1079.049194,145.209976 
	C1115.016968,144.451706 1150.985107,143.647858 1186.957153,143.174225 
	C1207.406372,142.904984 1227.863647,143.257706 1248.793091,143.444244 
z" data-index="19"></path>
<path fill="#485684" opacity="1.000000" stroke="none" d="
M481.464539,466.056763 
	C487.797699,474.906647 496.900452,473.940613 506.463470,473.527802 
	C528.256836,472.587006 550.086914,472.442596 571.904358,472.130035 
	C599.554932,471.733856 627.207703,471.489929 654.859558,471.183655 
	C691.338440,470.779602 727.819519,470.514679 764.295471,469.930084 
	C789.769714,469.521790 815.236755,468.667633 840.707825,468.046936 
	C842.864441,467.994385 845.027283,468.202515 847.564514,468.430542 
	C840.520325,469.275116 833.105835,470.497711 825.676331,470.596039 
	C784.856079,471.136536 744.030884,471.298035 703.209900,471.790222 
	C660.569458,472.304321 617.929932,472.944580 575.293579,473.725067 
	C548.817566,474.209686 522.349731,475.128082 495.875000,475.701233 
	C487.467865,475.883209 483.137421,472.879730 481.464539,466.056763 
z" data-index="20"></path>
<path fill="#485684" opacity="1.000000" stroke="none" d="
M1196.124512,477.618835 
	C1197.884399,475.377747 1199.597046,472.486481 1202.122314,470.845947 
	C1211.117676,465.002106 1220.690796,460.957489 1231.862305,461.118164 
	C1251.823364,461.405304 1271.794678,461.321686 1291.757568,461.068024 
	C1334.326660,460.527130 1376.905884,460.190277 1419.453491,458.880768 
	C1433.492554,458.448669 1447.198486,454.418854 1459.544678,447.066956 
	C1464.253052,444.263245 1468.838501,441.253296 1473.826660,438.292236 
	C1467.797974,446.275848 1458.624634,450.007416 1449.631104,453.822540 
	C1436.620117,459.341980 1422.910645,460.754730 1408.807495,460.861084 
	C1348.526123,461.315674 1288.244751,462.002350 1227.971436,463.060730 
	C1217.898438,463.237610 1208.759399,467.799744 1200.820068,474.249695 
	C1199.405518,475.398926 1197.908813,476.447327 1196.124512,477.618835 
z" data-index="21"></path>
<path fill="#485684" opacity="1.000000" stroke="none" d="
M1570.767334,143.353821 
	C1569.003662,143.903900 1566.766113,144.725250 1564.528076,144.726791 
	C1466.255249,144.794327 1367.982544,144.794632 1269.709717,144.758987 
	C1267.584595,144.758209 1265.459717,144.245163 1263.039307,143.747467 
	C1264.397583,143.402451 1266.051270,143.175018 1267.704956,143.174744 
	C1368.069580,143.158295 1468.434326,143.160339 1568.798950,143.164246 
	C1569.297119,143.164261 1569.795166,143.215439 1570.767334,143.353821 
z" data-index="22"></path>
<path fill="#485684" opacity="1.000000" stroke="none" d="
M867.773865,468.891113 
	C871.578735,468.046814 870.735596,470.172272 869.893982,472.485718 
	C865.186584,485.425629 860.544250,498.389160 855.849731,511.333801 
	C847.416687,534.586914 838.968750,557.834656 830.515198,581.080322 
	C821.954102,604.621582 813.436462,628.179016 804.764099,651.679199 
	C802.886963,656.765808 800.431458,661.638916 797.929443,666.790649 
	C801.023376,656.813293 804.269409,646.598083 807.877136,636.512146 
	C812.562073,623.414734 817.557800,610.428711 822.377625,597.379089 
	C829.381653,578.415710 836.407043,559.459839 843.314697,540.461243 
	C850.733032,520.058350 858.065369,499.623932 865.331604,479.166443 
	C866.469421,475.962921 867.057190,472.563965 867.773865,468.891113 
z" data-index="23"></path>
<path fill="#485684" opacity="1.000000" stroke="none" d="
M567.231567,223.907578 
	C564.543335,232.819687 561.805176,242.012024 558.620300,251.046890 
	C551.113342,272.342712 543.394897,293.563995 535.759033,314.814392 
	C529.917908,331.070221 524.092896,347.331848 518.223022,363.577301 
	C512.016663,380.754120 505.784546,397.921692 499.504486,415.071594 
	C498.891052,416.746826 497.861847,418.269806 496.770020,420.066223 
	C499.452301,411.164703 502.193481,401.991211 505.366364,392.969543 
	C513.611328,369.526154 521.989868,346.129242 530.421875,322.752289 
	C537.845093,302.172241 545.452637,281.658752 552.900330,261.087463 
	C556.792664,250.336395 560.477722,239.510361 564.357117,228.754517 
	C564.951172,227.107513 566.091187,225.657410 567.231567,223.907578 
z" data-index="24"></path>
<path fill="#485684" opacity="1.000000" stroke="none" d="
M1140.049561,602.759094 
	C1143.330444,592.159363 1146.294189,581.092957 1150.575562,570.562195 
	C1160.498413,546.155029 1170.805664,521.894348 1181.529175,497.829254 
	C1184.366943,491.460480 1189.281860,486.017212 1193.549561,480.018555 
	C1187.378052,492.001862 1179.998047,503.729950 1174.617554,516.313110 
	C1164.723999,539.450195 1156.016602,563.094177 1146.793457,586.518494 
	C1144.684326,591.875305 1142.487427,597.197571 1140.049561,602.759094 
z" data-index="25"></path>
<path fill="#485684" opacity="1.000000" stroke="none" d="
M630.605225,152.479156 
	C628.880798,152.981003 626.787415,153.553329 624.671936,153.652679 
	C615.363281,154.089783 606.050171,154.546616 596.734436,154.664917 
	C592.915405,154.713440 591.447632,156.854630 590.432861,159.871490 
	C585.884399,173.393646 581.502258,186.974167 576.756958,200.426697 
	C574.231018,207.587509 571.087708,214.530533 567.919800,221.771957 
	C569.316895,216.476990 570.915344,210.947922 572.736755,205.493332 
	C577.887329,190.069077 583.280090,174.723831 588.251160,159.242661 
	C589.928345,154.019363 592.561218,151.751312 598.276611,152.008942 
	C608.909729,152.488220 619.574463,152.263550 630.605225,152.479156 
z" data-index="26"></path>
<path fill="#485684" opacity="1.000000" stroke="none" d="
M1543.726562,282.107666 
	C1544.366211,278.472504 1544.916748,274.516937 1546.243530,270.841583 
	C1549.144653,262.805359 1552.534180,254.947006 1555.549438,246.950104 
	C1559.026245,237.729782 1562.233154,228.407608 1565.722290,219.192154 
	C1567.228149,215.214828 1569.148193,211.394302 1571.143799,207.261627 
	C1571.185791,208.761887 1571.290894,210.625641 1570.691040,212.225021 
	C1565.645630,225.676514 1560.353516,239.036072 1555.380615,252.513718 
	C1552.468262,260.406860 1550.091431,268.496338 1547.275146,276.426971 
	C1546.575684,278.396606 1545.105469,280.092560 1543.726562,282.107666 
z" data-index="27"></path>
<path fill="#485684" opacity="1.000000" stroke="none" d="
M1571.755981,205.122498 
	C1572.807251,200.790161 1573.990723,196.223358 1575.464111,191.752090 
	C1577.258667,186.305847 1579.329834,180.951370 1581.221436,175.536240 
	C1583.227051,169.794327 1585.246460,164.054474 1587.082397,158.257431 
	C1587.722046,156.238098 1588.069092,154.058746 1588.137939,151.939087 
	C1588.317871,146.402359 1586.783081,144.946930 1581.193604,144.650589 
	C1578.903442,144.529160 1576.626465,144.160965 1574.050781,143.688477 
	C1576.900757,143.344070 1580.051514,143.012177 1583.184692,143.133713 
	C1588.573975,143.342758 1591.909424,147.378708 1590.518066,152.577927 
	C1588.525513,160.023529 1585.883057,167.293045 1583.635376,174.673431 
	C1582.340576,178.924957 1581.648071,183.393921 1580.020142,187.501801 
	C1577.668335,193.436569 1574.713867,199.132538 1571.755981,205.122498 
z" data-index="28"></path>
<path fill="#485684" opacity="1.000000" stroke="none" d="
M1480.140869,432.656433 
	C1483.196899,428.006836 1487.013672,423.536804 1489.852051,418.513916 
	C1493.593262,411.893311 1496.727783,404.910400 1499.825195,397.950653 
	C1503.097534,390.598053 1506.055664,383.104218 1509.065308,375.637451 
	C1509.675537,374.123352 1509.676880,372.351196 1510.353394,370.879333 
	C1511.681030,367.991272 1513.286255,365.230743 1515.077026,362.220551 
	C1515.459961,362.832550 1515.919556,363.899475 1515.568848,364.411957 
	C1509.657471,373.050262 1510.343994,384.005280 1505.319092,393.002014 
	C1498.322632,405.528961 1494.069946,419.653351 1483.516235,430.083923 
	C1482.584351,431.005096 1481.486938,431.758667 1480.140869,432.656433 
z" data-index="29"></path>
<path fill="#485684" opacity="1.000000" stroke="none" d="
M1528.800537,320.709381 
	C1530.104858,316.420837 1531.683838,311.934418 1533.338013,307.475922 
	C1534.875488,303.331726 1536.404297,299.180328 1538.102173,295.100922 
	C1539.590698,291.524628 1541.308594,288.043823 1543.173706,284.268555 
	C1541.960693,288.973877 1540.595215,293.962433 1539.011841,298.880890 
	C1537.297974,304.205109 1535.586304,309.548737 1533.454834,314.710938 
	C1532.560181,316.877350 1530.589478,318.599518 1528.800537,320.709381 
z" data-index="30"></path>
<path fill="#485684" opacity="1.000000" stroke="none" d="
M1515.727539,360.094299 
	C1516.067261,357.442200 1516.300171,354.449280 1517.316284,351.751343 
	C1520.641357,342.922363 1524.251465,334.200684 1528.052368,325.228760 
	C1525.900513,337.236115 1521.967163,348.926849 1515.727539,360.094299 
z" data-index="31"></path>
<path fill="#485684" opacity="1.000000" stroke="none" d="
M496.105560,422.243591 
	C491.628754,434.998962 486.843842,447.941925 481.797424,461.083984 
	C483.496338,455.017487 485.212250,448.661682 487.482635,442.510498 
	C489.989136,435.719574 493.003998,429.116241 496.105560,422.243591 
z" data-index="32"></path>
<path fill="#485684" opacity="1.000000" stroke="none" d="
M784.331909,703.936707 
	C781.757507,712.135925 779.044128,720.583008 776.014038,728.914917 
	C774.287598,733.662048 772.044250,738.221069 769.779053,743.070251 
	C772.495117,734.580994 775.353943,725.845703 778.482849,717.208313 
	C780.093750,712.761108 782.185608,708.488098 784.331909,703.936707 
z" data-index="33"></path>
<path fill="#485684" opacity="1.000000" stroke="none" d="
M769.005005,745.228394 
	C765.215759,756.298950 761.119507,767.556274 756.797729,779.045044 
	C758.136353,774.006531 759.459900,768.649475 761.327209,763.489136 
	C763.539307,757.375916 766.220154,751.432312 769.005005,745.228394 
z" data-index="34"></path>
<path fill="#485684" opacity="1.000000" stroke="none" d="
M797.244690,668.923340 
	C793.426941,679.665161 789.356323,690.617737 784.990845,701.774963 
	C787.637939,693.348816 790.509460,684.692993 793.566711,676.103271 
	C794.428894,673.680786 795.835144,671.451843 797.244690,668.923340 
z" data-index="35"></path>
<path fill="#485684" opacity="1.000000" stroke="none" d="
M1127.099365,639.744324 
	C1130.193359,630.689819 1133.541870,621.390503 1137.155762,611.904297 
	C1134.065308,620.978088 1130.709717,630.238831 1127.099365,639.744324 
z" data-index="36"></path>
<path fill="#485684" opacity="1.000000" stroke="none" d="
M1474.554077,438.055237 
	C1475.862671,436.465515 1477.480835,434.753540 1479.411011,432.928772 
	C1478.103394,434.521606 1476.483521,436.227295 1474.554077,438.055237 
z" data-index="37"></path>
<path fill="#485684" opacity="1.000000" stroke="none" d="
M1138.050537,608.788086 
	C1138.224854,607.683411 1138.708008,606.405762 1139.415405,604.962036 
	C1139.213013,606.069031 1138.786255,607.342041 1138.050537,608.788086 
z" data-index="38"></path>
<path fill="#485684" opacity="1.000000" stroke="none" d="
M1194.172974,479.773621 
	C1194.324097,479.259521 1194.761841,478.661377 1195.455811,477.941528 
	C1195.294434,478.443054 1194.877075,479.066315 1194.172974,479.773621 
z" data-index="39"></path>
<path fill="#485684" opacity="1.000000" stroke="none" d="
M756.232117,781.244568 
	C756.121094,781.656006 755.757263,782.243774 755.153809,782.864807 
	C755.269226,782.405701 755.624268,781.913269 756.232117,781.244568 
z" data-index="40"></path>



</svg>